<svg height="48" viewBox="0 0 48 48" width="48" xmlns="http://www.w3.org/2000/svg" xmlns:xlink="http://www.w3.org/1999/xlink"><linearGradient id="a" x1="50%" x2="50%" y1="0%" y2="100%"><stop offset="0" stop-color="#ffe705"/><stop offset="1" stop-color="#ffb800"/></linearGradient><g fill="none" fill-rule="evenodd"><circle cx="24" cy="24" fill="url(#a)" r="24"/><path d="m36 24.1428571c0-1.59375-1.0955357-2.9383928-2.5741071-3.3214285v1.8375c-.2517858-.1473215-.5464286-.2303572-.8571429-.2303572-.9455357 0-1.7169643.76875-1.7169643 1.7142857 0 .9455358.76875 1.7142858 1.7169643 1.7142858.3133929 0 .6053571-.0830358.8571429-.2303572v1.8375c-.2732143.0696429-.5625.1098214-.8571429.1098214-1.89375 0-3.43125-1.5375-3.43125-3.4285714s1.5401786-3.4285714 3.43125-3.4285714c.2973214 0 .5839286.0375.8571429.1071428v-5.2526785c0-1.4169643-1.1196429-2.5714286-2.49375-2.5714286h-14.7214286c-1.3741072 0-2.49375 1.1544643-2.49375 2.5714286v4.2723214h3.43125v1.7142857h-3.43125v-1.7008928h-1.7169643v1.7142857h1.7169643v5.1294643h3.43125v1.7142857h-3.4580357v-1.7008929h-1.6901786v1.7142857h1.7169643v4.2857143c0 1.4169643 1.1196428 2.5714286 2.49375 2.5714286h14.7214286c1.3741071 0 2.49375-1.1544643 2.49375-2.5714286v-5.2526786c1.4785714-.3803571 2.5741071-1.725 2.5741071-3.31875zm-17.1348214-6h10.2964285v1.7142858h-10.2964285zm0 5.1428572h8.5285714v1.7142857h-8.5285714zm10.2964285 6.8571428h-10.2964285v-1.7142857h10.2964285zm4.5750893-7.248125-.01-.01s.01 0 .01.01zm0 2.5694643-.01.01s.01 0 .01-.01zm.5792857-1.2436607c0-.0267857.01-.0508928.01-.0776786 0-.0267857 0-.0535714-.01-.0776785 0 .0267857.01.0508928.01.0776785 0 .0267858-.01.0535715-.01.0776786zm-.4814285 1.1511607.03-.03zm.0501785-.0528571.01-.01zm.0469643-.0566964c.02-.02.03-.04.05-.06-.02.02-.03.04-.05.06zm.0401786-.0472322c.02-.02.04-.05.05-.07-.02.02-.03.04-.05.07zm.0499107-.0666964c.02-.03.04-.06.06-.1-.02.04-.04.07-.06.1zm.0275-.0696429c.03-.0285714.05-.0642857.08-.1-.02.0357143-.05.0714286-.08.1zm.0491964-.0776785c.02-.0357143.05-.0642858.07-.1-.02.0357142-.05.0642857-.07.1zm.0248215-.0803572c.03-.0315789.06-.068421.09-.1-.03.0368421-.06.0684211-.09.1zm.0421428-.075c.02-.0333333.05-.0666667.07-.1-.02.0333333-.04.0666667-.07.1zm.0258036-.0910714c.03-.0333333.05-.0666667.08-.1-.03.0375-.05.0708333-.08.1zm.0341071-.0723214c.02-.0318182.04-.0681819.06-.1-.02.0363636-.04.0681818-.06.1zm.0214286-.0910715c.02-.0346154.04-.0692307.06-.1-.02.0307693-.04.0653846-.06.1zm.0224107-.075c.02-.032.03-.068.05-.1-.02.032-.04.064-.05.1zm.0170536-.0964285c.01-.0321429.03-.0678572.04-.1-.01.0321428-.02.0642857-.04.1zm.0180357-.0803572c.01-.0321428.02-.0678571.02-.1 0 .0357143-.01.0678572-.02.1zm-.4697321-1.3520536.03.03zm.0501785.0528572.01.01zm.0469643.0566964c.02.02.03.04.05.06-.02-.02-.03-.04-.05-.06zm.0401786.0472322c.02.02.04.05.05.07-.02-.02-.03-.04-.05-.07zm.0499107.0666964c.02.03.04.07.06.1-.02-.04-.04-.07-.06-.1zm.0275.0589286c.03.0285714.05.0642857.08.1-.02-.0357143-.05-.0714286-.08-.1zm.0491964.0776785c.02.0357143.05.0642857.07.1-.02-.0357143-.05-.0642857-.07-.1zm.0248215.0669643c.03.031579.06.0684211.09.1-.03-.0368421-.06-.068421-.09-.1zm.0421428.0776786c.02.0333333.05.0666667.07.1-.02-.0333333-.04-.0666667-.07-.1zm.0258036.075c.03.0333333.05.0666667.08.1-.03-.0375-.05-.0708333-.08-.1zm.0341071.0776786c.02.0318181.04.0681818.06.1-.02-.0363637-.04-.0681819-.06-.1zm.0214286.0803571c.02.0346154.04.0692308.06.1-.02-.0307692-.04-.0653846-.06-.1zm.0224107.0776786c.02.032.03.068.05.1-.02-.032-.04-.064-.05-.1zm.0170536.0883928c.01.0321429.03.0678572.04.1-.01-.0321428-.02-.0642857-.04-.1zm.0180357.0803572c.01.0321428.02.0678571.02.1 0-.0357143-.01-.0678572-.02-.1z" fill="#fff" fill-rule="nonzero"/></g></svg>