<svg height="48" viewBox="0 0 48 48" width="48" xmlns="http://www.w3.org/2000/svg" xmlns:xlink="http://www.w3.org/1999/xlink"><linearGradient id="a" x1="41.987049%" x2="56.796065%" y1="108.186545%" y2=".821003%"><stop offset="0" stop-color="#3158d3"/><stop offset="1" stop-color="#306ef3"/></linearGradient><g fill="none" fill-rule="evenodd"><circle cx="24" cy="24" fill="url(#a)" r="24"/><path d="m12 35.2859594h5.1429137v-12.7206756h-5.1429137zm23.8690125-12.3590645c-.147323-.2250025-.3991115-.3616111-.6669716-.3616111h-8.1616969v-7.2670442c0-1.2669783-1.0285827-2.2982396-2.2928824-2.2982396h-1.4946593c-1.2642996 0-2.2928823 1.0312613-2.2928823 2.2982396v4.3312976c0 .0187502 0 .0375004.0026786.0562506 0 .0107144.0508934 1.0767976-.7044721 1.8884136-.3455395.3723256-.8142946.6401857-1.4009082.8035803v12.9108563h11.8635233c.3187535 0 .610721-.1901807.7339367-.4848268l4.4812993-11.1161936c.1044654-.2517885.080358-.5357202-.0669651-.7607227z" fill="#fff" fill-rule="nonzero"/></g></svg>