<svg height="48" viewBox="0 0 48 48" width="48" xmlns="http://www.w3.org/2000/svg" xmlns:xlink="http://www.w3.org/1999/xlink"><linearGradient id="a" x1="50%" x2="50%" y1="0%" y2="100%"><stop offset="0" stop-color="#a700ff"/><stop offset="1" stop-color="#7c02ff"/></linearGradient><g fill="none" fill-rule="evenodd"><circle cx="24" cy="24" fill="url(#a)" r="24"/><path d="m28.0258929 26.3955357c3.2946428 1.4357143 5.5848214 4.5428572 5.5821428 8.1428572.0006795.3457178-.2367591.6463994-.5732143.7258928v.0160714h-.0883928c-.0267857.0026786-.0535715.0053572-.0803572.0053572s-.0535714-.0026786-.0803571-.0053572h-17.6866072c-.0267857.0026786-.0535714.0053572-.0803571.0053572-.4125 0-.7446429-.3321429-.7446429-.7446429 0-3.6026785 2.2901786-6.7098214 5.5848215-8.1455357 1.1410714.9616072 2.5714285 1.4866072 4.0821428 1.4866072s2.9410715-.525 4.0848215-1.4866072zm-10.3125-6.1821428c-1.7196429-.2839286-3.0321429-1.7785715-3.0321429-3.5839286 0-2.0035714 1.6232143-3.6294643 3.6241071-3.6294643 1.6151786 0 2.9839286 1.0580357 3.4553572 2.5232143-.8598214.3133928-1.6473214.8142857-2.3142857 1.48125-.8919643.8919643-1.4839286 2.0008928-1.7330357 3.2089286zm-.13125 1.2964285c0 1.51875.5276785 2.9571429 1.4946428 4.1035715h-6.5383928c-.01875.0026785-.0348215.0026785-.0535715.0026785-.2678571 0-.4848214-.2169643-.4848214-.4848214 0-2.34375 1.4892857-4.36875 3.6321429-5.3089286.5678571.4794643 1.25625.8008929 1.9928571.9214286h.0026786c-.0294643.2517857-.0455357.5089286-.0455357.7660714zm18.4178571 3.6214286c0 .2303571-.1607143.4232143-.3723214.4741071v.0107143h-.0589286c-.01875.0026786-.0348214.0026786-.0535714.0026786s-.0375 0-.0535715-.0026786h-6.6535714c.9669643-1.1491071 1.4946429-2.5875 1.4946429-4.10625 0-.2544643-.0133929-.5035714-.0428572-.75.7794643-.1071428 1.5107143-.4339285 2.1080357-.9375 2.1428572.9375 3.6321429 2.9625 3.6321429 5.3089286zm-5.8258929-4.9017857c-.24375-1.2133929-.8410714-2.3303572-1.7330357-3.225-.6401785-.6401786-1.3928571-1.1276786-2.2125-1.44375.4553572-1.48125 1.8348215-2.5580357 3.4633929-2.5580357 2.0008928 0 3.6241071 1.6232143 3.6241071 3.6294643 0 1.8401785-1.36875 3.3616071-3.1419643 3.5973214zm-11.7883928 1.2803571c0-3.0740563 2.4872181-5.5660714 5.5553571-5.5660714 3.0681391 0 5.5553572 2.4920151 5.5553572 5.5660714 0 1.9885658-1.0588451 3.8260764-2.7776786 4.8203594-1.7188335.9942829-3.8365237.9942829-5.5553572 0-1.7188335-.994283-2.7776785-2.8317936-2.7776785-4.8203594z" fill="#fff" fill-rule="nonzero"/></g></svg>