<svg height="42" viewBox="0 0 300 42" width="300" xmlns="http://www.w3.org/2000/svg"><path d="m259.557695 31.6698936h-16.075803l-3.750708 9.8221006h-4.636232l14.152174-35.96923697h4.798792l14.152174 35.96923697h-5.042754zm-1.473285-4.022289-6.397188-17.4652751-6.669362 17.4652751zm-258.07088343-27.48591674h8.77198068v27.47042774l18.01400965-22.26242774 5.6094203-.00024277-11.0123188 13.54415031 12.8920289 22.5683237h-10.1357487l-8.6475846-15.2219653-12.34685989 15.0850404-3.14492754-2.5777803zm155.94311643 26.31554914s-2.412802-18.74680925 13.77198-21.85310983c0 0 16.906039-2.56127168 18.315701 12.15280923h-4.38116s-1.599517-9.86393062-13.826087-8.06545663c0 0-8.35 1.55302893-9.542995 11.71654333-1.192753 10.1637572 3.741304 16.3217341 10.410628 17.3299769 6.668841 1.0082428 12.85-2.4522659 12.85-2.4522659v-8.8391792h-10.854831v-3.6513295h15.344445v14.45237s-4.950242 3.9164393-10.996136 4.383052c-6.04541.4670983-15.181642.1400809-19.519323-9.5058382 0 0-1.192754-2.3978843-1.572222-5.6675722zm-76.0745899-17.43968671v28.33373411h5.4338165c4.7492753 0 8.4565217-1.2733526 11.121256-3.8205434 2.6647343-2.5471907 3.9968604-6.1142774 3.9968604-10.7022312 0-4.587711-1.3685995-8.0363237-4.105556-10.3463237-2.7371981-2.3097572-6.3357488-3.46463581-10.7951691-3.46463581zm-4.8301932 32.53373411v-36.75752602h10.6746377c5.6671497 0 10.3806763 1.62173411 14.1400966 4.86447399 3.7594198 3.24322543 5.6393718 7.59374563 5.6393718 13.05131793 0 5.6954913-1.879952 10.2596532-5.6393718 13.6924855-3.7594203 3.4330752-8.6016908 5.1492486-14.52657 5.1492486zm-34.7931159-18.2164439c0 4.3468786 1.1043478 7.8311792 3.3128019 10.4526589 2.2082126 2.6222081 5.0903382 3.932948 8.6454106 3.932948 3.8166667 0 6.8140097-1.2561156 8.992029-3.770289 2.1775362-2.5134451 3.2664251-6.0288208 3.2664251-10.5456416 0-4.6408786-1.0657005-8.2215607-3.1971014-10.7430174-2.1318841-2.5212139-5.0521739-3.78218495-8.7608696-3.78218495-3.6475845 0-6.6024154 1.33064735-8.8652174 3.99121385-2.2620773 2.6603237-3.3934782 6.1485087-3.3934782 10.4643122zm-4.8478261.3712023c0-5.8006127 1.5618357-10.4179422 4.6864734-13.85223124 3.1241546-3.43380347 7.3562802-5.15094798 12.6968599-5.15094798 4.9710145 0 8.9724638 1.67854336 12.0043478 5.03514451 3.0318841 3.35684391 4.5480677 7.72654331 4.5480677 13.10958381 0 5.8321734-1.554831 10.4570289-4.6632851 13.8755376-3.1089372 3.4187514-7.2642512 5.1276416-12.4664251 5.1276416-5.0785024 0-9.1497584-1.6783006-12.2118357-5.0349017-3.062802-3.3563584-4.5942029-7.7267862-4.5942029-13.1098266zm86.5969561-18.30498384h4.395894l19.728019 28.77267054v-28.77267054h4.295653v35.77744504h-4.710387l-19.313285-28.4638612v28.4638612h-4.395894zm149.340918-.19346705h4.395894l19.728261 28.77267049v-28.77267049h4.295652v35.77744509h-4.710628l-19.313285-28.7799538v28.7799538h-4.395894zm-161.064009 35.87754099v-35.97749128h4.130676v35.97749128zm84.635724-35.58237567h5.471015l12.873671 30.16401157 13.0343-30.16401157h5.229951v35.58225437h-4.264492v-28.142185l-11.988406 28.142185h-4.103382l-11.907971-28.142185v28.142185h-4.344686z" fill="#fff" fill-rule="evenodd"/></svg>