<svg height="666" viewBox="0 0 1920 666" width="1920" xmlns="http://www.w3.org/2000/svg"><g fill="none" fill-rule="evenodd" opacity=".6" stroke="#fff"><g opacity=".238816" stroke-width=".5"><path d="m3.16339409 545.652108c197.72006691 119.389067 600.22094391 119.793253 872.76180891 23.731537 272.560107-96.061717 485.979267-397.508043 1043.604877-268.303012"/><path d="m1919.53008 296.153404c-547.44814-129.282018-761.50219 160.57762-1033.581314 255.907951-276.773464 96.677621-669.808712 110.41997-882.86232824-8.738132"/><path d="m1919.53008 291.226175c-537.27066-129.359006-751.9596 148.933192-1023.557752 243.512891-281.006061 97.274277-664.57568 125.201657-892.98208566 6.255271"/><path d="m1919.53008 286.318193c-527.09319-129.455241-742.41702 137.269518-1013.51495 231.117831-285.23866 97.890181-659.342649 139.983343-903.08260492 21.248675"/><path d="m1919.53008 281.410211c-516.89647-129.551476-732.87443 125.605843-1003.491387 218.722771-289.471259 98.486837-654.128858 154.76503-913.18312425 36.242078"/><path d="m1919.53008 276.482982c-506.719-129.628464-723.13945 114.500331-993.467824 206.327711-293.492227 99.718644-648.895827 169.546717-923.28364359 51.235482"/><path d="m1919.53008 271.575c-496.54152-129.724699-713.57763 102.913645-983.444261 193.932651-297.686348 100.411536-643.662796 184.309156-933.38416293 66.248132"/><path d="m1919.53008 266.647771c-486.36405-129.820934-703.99657 91.326958-973.40146 181.53759-301.899706 101.123675-638.429765 199.110091-943.50392026 81.260784"/><path d="m1919.53008 261.739789c-476.18657-129.897922-694.43474 79.721024-963.377897 169.14253-306.093827 101.79732-633.196734 213.87253-953.6044396 96.23494"/><path d="m1919.53008 256.831807c-466.0091-129.994156-684.87292 68.095844-953.354334 156.74747-310.307187 102.470964-627.963703 228.654217-963.70495893 111.228343"/><path d="m1919.53008 251.904578c-455.81238-130.090391-675.33033 56.470663-943.330771 144.35241-314.520546 103.144608-622.730673 243.435904-973.78623919 126.240994"/><path d="m1919.53008 246.996596c-445.63491-130.167379-665.76851 44.845482-933.287969 131.95735-318.733906 103.799006-617.497642 258.198343-983.90599752 141.21515"/><path d="m1919.53008 242.069367c-435.45743-130.244367-656.22592 33.220302-923.264407 119.581537-322.947264 104.453403-612.26461 272.98003-994.00651586 156.208554"/><path d="m1919.53008 237.161386c-425.27996-130.35985-646.68333 21.556626-913.24084 107.167228-327.179867 105.107802-607.031584 287.761717-1004.10703919 171.221205"/><path d="m1919.53008 232.253404c-415.10248-130.436838-637.14075 9.892951-903.21728 94.772168-331.393224 105.723705-601.79855 302.543404-1014.20755553 186.214609"/><path d="m1919.53008 227.326175c-404.90577-130.5330726-627.59816-1.770723-893.17448 82.377108-335.645059 106.358856-596.584756 317.32509-1024.32731187 201.208012"/><path d="m1919.53008 222.418193c-394.72829-130.6100605-618.05558-13.434398-883.15092 69.982048-339.858416 106.955512-591.351723 332.08753-1034.4278282 216.201416"/><path d="m1919.53008 217.510211c-384.55081-130.7062953-608.51299-25.117319-873.12735 57.586988-344.091022 107.552168-586.09946 346.869217-1044.52835454 231.194819"/><path d="m1919.53008 212.582982c-374.37334-130.8025302-598.97041-36.800241-863.10379 45.191928-348.323617 108.168072-580.866426 361.650903-1054.62887088 246.188223"/><path d="m1919.53008 207.675c-364.19586-130.8795181-589.44706-48.50241-853.06099 32.796867-352.575453 108.745482-575.652633 376.432591-1064.74862721 261.181627"/><path d="m1919.53008 202.747771c-353.99915-130.9757529-579.90447-60.204578-843.03743 20.401807-356.808049 109.322892-570.419599 391.214277-1074.82990446 276.194277"/><path d="m1919.53008 197.839789c-343.82167-131.0719878-570.38113-71.906747-833.01386 8.006747-361.059894 109.881054-565.186575 405.976717-1084.9304308 291.187681"/><path d="m1919.53008 192.931807c-333.6442-131.1489757-560.85778-83.608915-822.9903-4.388313-365.292489 110.41997-559.953542 420.758404-1095.03094714 306.161837"/><path d="m1919.53008 188.004578c-323.46672-131.2452105-551.33443-95.330331-812.9475-16.783373-369.563564 110.978132-554.720509 435.54009-1105.15070347 321.174488"/><path d="m1919.53008 183.096596c-313.28925-131.3414454-541.81109-107.0517466-802.92394-29.178433-373.815399 111.497801-549.487475 450.321777-1115.25121981 336.167891"/><path d="m1919.53008 178.188614c-303.09253-131.4184333-532.42241-119.2928309-792.90037-41.573494-378.278874 111.266838-544.254452 465.084217-1125.35174614 351.142049"/><path d="m1919.53008 173.261386c-292.91506-131.5146691-522.87983-130.9565065-782.87681-53.968555-382.511469 111.901988-539.021418 479.865904-1135.45226248 366.154699"/><path d="m1919.53008 168.353404c-282.73758-131.610904-513.33724-142.6201811-772.83401-66.363615-386.744066 112.498645-533.788385 494.647591-1145.55277973 381.148103"/><path d="m1919.53008 163.426175c-272.56011-131.6878919-503.79466-154.28385572-762.81045-78.739428-390.976662 113.095301-528.555352 509.41003-1155.67253515 396.141506"/><path d="m1919.53008 158.518193c-262.38263-131.7841267-494.25207-165.94753035-752.78688-91.1537352-395.209267 113.7112052-523.322328 524.1917172-1165.77306149 411.1349092"/><path d="m1919.53008 153.610211c-252.20516-131.8803616-484.70949-177.611205-742.76332-103.5487953-399.441863 114.3271083-518.108533 538.9734033-1175.87357783 426.1283133"/><path d="m1919.53008 148.682982c-242.00844-131.9573495-475.1669-189.2748796-732.72052-115.9438555-403.67446 114.9430125-512.875501 553.7550905-1185.97409508 441.1409635"/></g><g stroke-width=".25"><g opacity=".238816" transform="translate(0 209)"><path d="m.83546492 337.543671c198.50886908-70.150464 504.27563208-130.736709 800.13426608-86.926414 340.320159 50.404979 604.241909 268.12595 1118.560349 187.871351"/><path d="m.83546492 334.207764c189.06247908-66.795275 491.88566208-133.185612 795.97862408-91.303587 340.993521 46.953376 609.936681 258.002532 1122.600551 174.739831"/><path d="m.83546492 330.871857c179.59684908-63.459368 479.45721308-135.576667 791.82298208-95.700043 341.628413 43.617469 615.612213 247.859832 1126.660003 161.58903"/><path d="m.83546492 327.535949c170.15045908-60.12346 467.02876508-137.909873 787.66734008-100.077215 342.244065 40.377975 621.306975 237.736414 1130.700205 148.438228"/><path d="m.83546492 324.180759c160.70406908-56.787552 454.56183908-140.185232 783.51169808-104.454388 342.859717 37.234895 626.982507 227.612996 1134.759657 135.306709"/><path d="m.83546492 320.844852c151.23844008-53.451645 442.09491208-142.38346 779.35605608-108.850844 343.436889 34.149663 632.677279 217.470296 1138.799859 122.155908"/><path d="m.83546492 317.508945c141.79204908-50.096456 429.62798608-144.52384 775.18117408-113.228017 344.014061 31.160844 638.352811 207.346878 1142.840071 109.005106"/><path d="m.83546492 314.173038c132.34565908-46.760549 417.14182008-146.606371 771.02553208-117.60519 344.591233 28.229874 644.047573 197.204177 1146.899513 95.873587"/><path d="m.83546492 310.837131c122.88003008-43.424642 404.63641608-148.631055 766.86989008-122.001646 345.149165 25.376034 649.723105 187.08076 1150.939725 82.722785"/><path d="m.83546492 307.481941c113.43363908-40.088734 392.13101108-150.59789 762.71424808-126.378819 345.707097 22.580043 655.417877 176.957342 1154.999167 69.571983"/><path d="m.83546492 304.146034c103.98724908-36.733545 379.62560608-152.487595 758.55860608-130.775275 346.245799 19.841899 661.093409 166.814642 1159.039379 56.440465"/><path d="m.83546492 300.810127c94.52161988-33.397638 367.12020208-154.319452 754.40296408-135.152448 346.784491 17.161604 666.788171 156.691224 1163.098821 43.289663"/><path d="m.83546492 297.474219c85.07522968-30.06173 354.61479708-156.09346 750.22808208-139.52962 347.342423 14.539156 672.463703 146.548523 1167.139033 30.158144"/><path d="m.83546492 294.11903c75.62883938-26.725823 342.10939208-157.809621 746.07244008-143.926076 347.881115 11.955274 678.158475 136.425105 1171.179245 17.007341"/><path d="m.83546492 290.783122c66.16321008-23.389915 329.60398808-159.448649 741.91679808-148.303249 348.419817 9.429241 683.834007 126.301688 1175.238687 3.856541"/><path d="m.83546492 287.447215c56.71681978-20.034726 317.09858308-161.029831 737.76115608-152.680422 348.977749 6.92249 689.528769 116.158988 1179.278899-9.274979"/><path d="m.83546492 284.111308c47.27042948-16.698819 304.59317908-162.572447 733.60551408-157.076878 349.535681 4.473587 695.204301 106.03557 1183.338341-22.42578"/><path d="m.83546492 280.775401c37.80480018-13.362912 292.08777408-164.037933 729.44987108-161.454051 350.093614 2.063249 700.899074 95.912152 1187.378554-35.5765821"/><path d="m.83546492 277.420211c28.35840988-10.027004 279.60160808-168.723629 725.27499008-165.831224 350.651545 2.275359 706.574605 85.769452 1191.418755-48.7081009"/><path d="m.83546492 274.084304c18.91201958-6.671815 267.11544308-166.776076 721.11934808-170.22768 351.209477-2.661012 712.269367 75.646034 1195.478207-61.8589025"/><path d="m.83546492 270.748397c9.44639028-3.335908 254.62927708-167.470254 716.96370608-174.6048527 351.805889-4.5121519 717.944899 65.5033337 1199.518409-74.9904219"/><path d="m.83546492 267.412489s242.16235108-169.3021093 712.80806408-178.9820249c352.363821-7.2502953 723.639671 55.3799159 1203.577861-88.14122359"/></g><g opacity=".238816" transform="translate(0 143)"><path d="m1919.53008 191.173077c-269.98207-52.269231-662.34395 170.403846-959.356928 170.769231-346.303513.442307-519.955486-205.423077-959.35692616-137.865385"/><path d="m1919.53008 186.519231c-273.65673-49.673077-659.74667 175.153846-958.491169 177.076923-346.265035 1.865384-519.840051-202.807692-960.22268516-133.403846"/><path d="m1919.53008 181.846154c-277.31216-47.076923-657.1494 179.903846-957.625411 183.365384-346.207317 3.307693-519.705377-200.173076-961.06920408-128.923076"/><path d="m1919.53008 177.192308c-280.98682-44.5-654.55212 184.653846-956.759652 189.653846-346.168839 4.75-519.589943-197.557692-961.93496308-124.461539"/><path d="m1919.53008 172.538462c-284.66149-41.903847-651.95484 189.423076-955.893893 195.961538-346.111122 6.192308-519.455269-194.942308-962.80072208-120"/><path d="m1919.53008 167.884615c-288.31692-39.307692-649.33833 194.846154-955.028134 202.25-346.034166 8.384616-519.339835-192.307692-963.66648108-115.538461"/><path d="m1919.53008 163.230769c-291.99158-36.711538-646.72181 199.711539-954.162376 208.538462-345.976448 9.942307-519.205161-189.692308-964.53223908-111.076923"/><path d="m1919.53008 158.557692c-295.66625-34.134615-644.12454 204.557693-953.296617 214.846154-345.918731 11.5-519.070487-187.076923-965.39799808-106.615384"/><path d="m1919.53008 153.903846c-299.32167-31.538461-641.50802 209.403846-952.450097 221.134616-345.861014 13.038461-518.955053-184.461539-966.24451808-102.153847"/><path d="m1919.53008 149.25c-302.99634-28.942308-638.91074 214.25-951.584338 227.423077-345.803297 14.576923-518.82038-181.826923-967.12951616-97.692308"/><path d="m1919.53008 144.596154c-306.671-26.346154-636.29423 219.096154-950.71858 233.730769-345.745579 16.096154-518.704944-179.211538-967.99527416-93.211538"/><path d="m1919.53008 139.923077c-310.34567-23.75-633.69695 223.923077-949.852821 240.019231-345.687862 17.596154-518.570271-176.596154-968.84179408-88.75"/><path d="m1919.53008 135.269231c-314.00109-21.173077-631.08044 228.730769-948.987062 246.307692-345.630145 19.115385-518.454837-173.961538-969.70755308-84.288461"/><path d="m1919.53008 130.615385c-317.67576-18.576923-628.46392 233.557692-948.121303 252.596153-345.572428 20.596154-518.320163-171.346153-970.57331208-79.826923"/><path d="m1919.53008 125.961538c-321.35042-15.980769-625.86665 238.346154-947.255544 258.903847-345.514711 22.096153-518.204729-168.73077-971.43907108-75.365385"/><path d="m1919.53008 121.288462c-325.00585-13.384616-623.25013 243.153846-946.389786 265.192307-345.456993 23.576923-518.089294-166.096154-972.30482908-70.884615"/><path d="m1919.53008 116.634615c-328.68051-10.788461-620.65285 247.942308-945.543266 271.48077-345.380037 25.038461-517.954621-163.48077-973.17058816-66.442308"/><path d="m1919.53008 111.980769c-332.35518-8.211538-618.03634 252.711539-944.677507 277.788462-345.32232 26.5-517.819947-160.865385-974.03634716-61.961539"/><path d="m1919.53008 107.326923c-336.01061-5.615385-615.43906 257.5-943.811748 284.076923-345.264603 27.942308-517.704513-158.25-974.90210616-57.5"/><path d="m1919.53008 102.653846c-339.68527-3.0192306-612.82255 262.269231-942.94599 290.365385-345.206885 29.403846-517.569839-155.615385-975.74862508-53.038462"/><path d="m1919.53008 97.9994986c-343.35994-.4225755-610.22527 267.0197324-942.080231 296.6735784-345.149168 30.826923-517.454404-153-976.61438408-48.576923"/><path d="m1919.53008 93.3461538c-347.0346 2.1538462-607.62799 271.7692312-941.214472 302.9615382-345.091451 32.25-517.319731-150.384615-977.48014308-44.115384"/><path d="m1919.53008 88.6923077c-350.69003 4.75-605.01148 276.5192303-940.348713 309.2500003-345.033733 33.673077-517.204297-147.769231-978.34590208-39.653846"/><path d="m1919.53008 84.0384615c-354.36469 7.3461539-602.4142 281.2500005-939.482954 315.5576925-344.995256 35.096154-517.069623-145.134616-979.21166108-35.192308"/><path d="m1919.53008 79.3653846c-358.03936 9.9423077-599.79769 285.9807694-938.636435 321.8461534-344.937538 36.5-516.954188-142.51923-980.07741916-30.730769"/><path d="m1919.53008 74.7115385c-361.69478 12.5384615-597.20041 290.7115385-937.770676 328.1346155-344.879821 37.903846-516.819515-139.903846-980.94317816-26.269231"/><path d="m1919.53008 70.0576923c-365.36945 15.1153846-594.60313 295.4230767-936.904917 334.4230767-344.822104 39.307693-516.684841-137.269231-981.78969808-21.788461"/><path d="m1919.53008 65.4038462c-369.04411 17.7115384-592.00586 300.1346158-936.039158 340.7307688-344.783626 40.673077-516.569407-134.653846-982.67469616-17.326923"/><path d="m1919.53008 60.7307692c-372.69954 20.3076923-589.40858 304.8461538-935.1734 347.0192308-344.725908 42.057692-516.453972-132.038462-983.52121508-12.865385"/><path d="m1919.53008 56.0769231c-376.3742 22.9038461-586.8113 309.5384619-934.307641 353.3076919-344.68743 43.423077-516.319298-129.423077-984.38697408-8.403846"/><path d="m1919.53008 51.4230769c-380.04887 25.4807693-584.21403 314.2115381-933.441882 359.6153851-344.629713 44.788461-516.203864-126.807693-985.25273308-3.942308"/><path d="m1919.53008 46.7692308c-383.70429 28.076923-581.61675 318.8846152-932.576123 365.9038462-344.591235 46.153846-516.069191-124.173077-986.11849208.519231"/><path d="m1919.53008 42.0961538c-387.37896 30.673077-579.03871 323.5576922-931.710364 372.1923082-344.552757 47.51923-515.953756-121.557693-986.98425108 4.980769"/><path d="m1919.53008 37.4423077c-391.05362 33.2692308-576.44144 328.2307693-930.863845 378.5000003-344.495039 48.865384-515.819082-118.942308-987.85000916 9.461538"/><path d="m1919.53008 32.7884615c-394.70905 35.8653847-573.8634 332.8846155-929.998086 384.7884615-344.456561 50.192308-515.703648-116.307692-988.71576816 13.923077"/><path d="m1919.53008 28.1346154c-398.38372 38.4423077-571.26612 337.5384616-929.132327 391.0769226-344.418083 51.538462-515.568974-113.692307-989.58152716 18.384616"/><path d="m1919.53008 23.4807692c-402.05838 41.0384616-568.78428 341.5192308-928.266568 397.3653848-344.4758 52.230769-515.45354-111.076923-990.42804708 22.846154"/><path d="m1919.53008 18.8076923c-405.71381 43.6346154-566.18701 346.2884617-927.40081 403.6730767-344.437321 53.673077-515.318866-108.461538-991.29380508 27.307693"/><path d="m1919.53008 14.1538462c-409.38847 46.2307692-563.58973 351.0384618-926.535051 409.9615388-344.379604 55.115384-515.203432-105.826923-992.15956408 31.76923"/><path d="m1919.53008 9.5c-413.06314 48.8269231-560.99245 355.788462-925.669292 416.25-344.321887 56.538462-515.068758-103.211538-993.02532308 36.230769"/><path d="m1919.53008 4.84615385c-416.7378 51.40384615-558.39518 360.51923115-924.803533 422.53846115-344.283409 58-514.953324-100.576923-993.89108208 40.711539"/><path d="m1919.53008.17307692c-420.39323 53.99999998-555.7979 365.28846108-923.957014 428.84615408-344.225691 59.442307-514.81865-97.961539-994.73760108 45.173077"/></g></g></g></svg>