<svg height="24" viewBox="0 0 24 24" width="24" xmlns="http://www.w3.org/2000/svg"><g fill="none" fill-rule="evenodd"><circle cx="12" cy="12" fill="#fdeef5" r="12"/><path d="m8.85714285 2h-5.7142857v1.14285715h-1.14285715v5.7142857h1.14285715v1.14285715h5.7142857v-1.14285715h1.14285715v-5.7142857h-1.14285715zm0-1.14285714v-.85714286h3.14285715v3.14285715h-.8571429v5.7142857h.8571429v3.14285715h-3.14285715v-.8571429h-5.7142857v.8571429h-3.14285715v-3.14285715h.85714286v-5.7142857h-.85714286v-3.14285715h3.14285715v.85714286zm-7.71428571 1.14285714h.85714286v-.85714286h-.85714286zm0 8.8571429h.85714286v-.8571429h-.85714286zm8.85714286 0h.8571429v-.8571429h-.8571429zm0-9.71428576v.85714286h.8571429v-.85714286z" fill="#f074ad" fill-rule="nonzero" transform="translate(6 6)"/></g></svg>