<svg height="118" viewBox="0 0 212 118" width="212" xmlns="http://www.w3.org/2000/svg"><path d="m61.9562098 34h106.0875802c9.720983 0 13.246047 1.0121562 16.799893 2.9127739s6.342925 4.689697 8.243543 8.2435431c1.900618 3.5538462 2.912774 7.0789096 2.912774 16.7998928v106.0875802c0 9.720983-1.012156 13.246047-2.912774 16.799893s-4.689697 6.342925-8.243543 8.243543-7.07891 2.912774-16.799893 2.912774h-106.0875802c-9.7209832 0-13.2460466-1.012156-16.7998928-2.912774-3.5538461-1.900618-6.3429254-4.689697-8.2435431-8.243543s-2.9127739-7.07891-2.9127739-16.799893v-106.0875802c0-9.7209832 1.0121562-13.2460466 2.9127739-16.7998928 1.9006177-3.5538461 4.689697-6.3429254 8.2435431-8.2435431 3.5538462-1.9006177 7.0789096-2.9127739 16.7998928-2.9127739z" fill="#292929" fill-rule="evenodd" opacity=".632789" transform="matrix(.70710678 .70710678 -.70710678 .70710678 106 -56.63456)"/></svg>