<svg height="69" viewBox="0 0 69 69" width="69" xmlns="http://www.w3.org/2000/svg"><path d="m451.743151 4043.76955h34.052803c3.120316 0 4.251818.32489 5.392559.93497 1.14074.61007 2.036 1.50533 2.646075 2.64607s.934965 2.27225.934965 5.39256v34.0528c0 3.12032-.32489 4.25182-.934965 5.39256s-1.505335 2.036-2.646075 2.64608c-1.140741.61007-2.272243.93496-5.392559.93496h-34.052803c-3.120316 0-4.251818-.32489-5.392558-.93496-1.140741-.61008-2.036001-1.50534-2.646076-2.64608s-.934964-2.27224-.934964-5.39256v-34.0528c0-3.12031.324889-4.25182.934964-5.39256s1.505335-2.036 2.646076-2.64607c1.14074-.61008 2.272242-.93497 5.392558-.93497z" fill="#4bd6e5" fill-rule="evenodd" transform="matrix(.70710678 .70710678 -.70710678 .70710678 2581.061072 -3174.462226)"/></svg>