<svg height="69" viewBox="0 0 69 69" width="69" xmlns="http://www.w3.org/2000/svg"><path d="m1570.74315 4069.76955h34.0528c3.12032 0 4.25182.32489 5.39256.93497 1.14074.61007 2.036 1.50533 2.64608 2.64607.61007 1.14074.93496 2.27225.93496 5.39256v34.0528c0 3.12032-.32489 4.25182-.93496 5.39256-.61008 1.14074-1.50534 2.036-2.64608 2.64608-1.14074.61007-2.27224.93496-5.39256.93496h-34.0528c-3.12031 0-4.25182-.32489-5.39256-.93496-1.14074-.61008-2.036-1.50534-2.64607-2.64608-.61008-1.14074-.93497-2.27224-.93497-5.39256v-34.0528c0-3.12031.32489-4.25182.93497-5.39256.61007-1.14074 1.50533-2.036 2.64607-2.64607 1.14074-.61008 2.27225-.93497 5.39256-.93497z" fill="#4bd6e5" fill-rule="evenodd" transform="matrix(.70710678 .70710678 -.70710678 .70710678 1808.19336 -3984.09949)"/></svg>