<svg height="64" viewBox="0 0 64 64" width="64" xmlns="http://www.w3.org/2000/svg" xmlns:xlink="http://www.w3.org/1999/xlink"><linearGradient id="a" x1="50%" x2="50%" y1="0%" y2="100%"><stop offset="0" stop-color="#474747"/><stop offset="1" stop-color="#2b2b2b"/></linearGradient><g fill="none" fill-rule="evenodd"><circle cx="32" cy="32" fill="url(#a)" r="32"/><g transform="translate(12 12)"><path d="m0 0h40v40h-40z"/><path d="m32.05 25.4333333-4.2333333-.4833333c-1.0166667-.1166667-2.0166667.2333333-2.7333334.95l-3.0666666 3.0666667c-4.7166667-2.4-8.5833334-6.25-10.9833334-10.9833334l3.0833334-3.0833333c.7166666-.7166667 1.0666666-1.7166667.95-2.7333333l-.4833334-4.20000003c-.2-1.68333334-1.6166666-2.95-3.3166666-2.95h-2.88333337c-1.88333333 0-3.45 1.56666666-3.33333333 3.45.88333333 14.23333333 12.2666667 25.60000003 26.4833333 26.48333333 1.8833334.1166667 3.45-1.45 3.45-3.3333333v-2.8833334c.0166667-1.6833333-1.25-3.1-2.9333333-3.3z" fill="#fff" fill-rule="nonzero"/></g></g></svg>