<svg height="64" viewBox="0 0 64 64" width="64" xmlns="http://www.w3.org/2000/svg" xmlns:xlink="http://www.w3.org/1999/xlink"><linearGradient id="a" x1="50%" x2="50%" y1="0%" y2="100%"><stop offset="0" stop-color="#474747"/><stop offset="1" stop-color="#2b2b2b"/></linearGradient><g fill="none" fill-rule="evenodd"><circle cx="32" cy="32" fill="url(#a)" r="32"/><g transform="translate(12 12)"><path d="m0 0h40v40h-40z"/><path d="m20 3.33333333c-6.45 0-11.66666667 5.21666667-11.66666667 11.66666667 0 6.95 7.36666667 16.5333333 10.39999997 20.1833333.6666667.8 1.8833334.8 2.55 0 3.0166667-3.65 10.3833334-13.2333333 10.3833334-20.1833333 0-6.45-5.2166667-11.66666667-11.6666667-11.66666667zm0 15.83333337c-2.3 0-4.1666667-1.8666667-4.1666667-4.1666667s1.8666667-4.1666667 4.1666667-4.1666667 4.1666667 1.8666667 4.1666667 4.1666667-1.8666667 4.1666667-4.1666667 4.1666667z" fill="#fff" fill-rule="nonzero"/></g></g></svg>