<svg height="64" viewBox="0 0 64 64" width="64" xmlns="http://www.w3.org/2000/svg" xmlns:xlink="http://www.w3.org/1999/xlink"><linearGradient id="a" x1="50%" x2="50%" y1="0%" y2="100%"><stop offset="0" stop-color="#474747"/><stop offset="1" stop-color="#2b2b2b"/></linearGradient><g fill="none" fill-rule="evenodd"><circle cx="32" cy="32" fill="url(#a)" r="32"/><g transform="translate(12 12)"><path d="m0 0h40v40h-40z"/><path d="m33.3333333 6.66666667h-26.66666663c-1.83333334 0-3.31666667 1.5-3.31666667 3.33333333l-.01666667 20c0 1.8333333 1.5 3.3333333 3.33333334 3.3333333h26.66666663c1.8333334 0 3.3333334-1.5 3.3333334-3.3333333v-20c0-1.83333333-1.5-3.33333333-3.3333334-3.33333333zm-.6666666 7.08333333-11.7833334 7.3666667c-.5333333.3333333-1.2333333.3333333-1.7666666 0l-11.78333337-7.3666667c-.41666666-.2666667-.66666666-.7166667-.66666666-1.2 0-1.1166667 1.21666666-1.7833333 2.16666666-1.2l11.16666667 6.9833333 11.1666667-6.9833333c.95-.5833333 2.1666666.0833333 2.1666666 1.2 0 .4833333-.25.9333333-.6666666 1.2z" fill="#fff" fill-rule="nonzero"/></g></g></svg>