<svg height="120" viewBox="0 0 120 120" width="120" xmlns="http://www.w3.org/2000/svg"><g fill="none" fill-rule="nonzero" transform="translate(10 10)"><path d="m98.3870968 30.6451613c0-3.5629032-2.8887097-6.4516129-6.4516129-6.4516129h-83.87096777c-3.56290323 0-6.4516129 2.8887097-6.4516129 6.4516129v46.7741935h96.77419357z" fill="#fff"/><path d="m98.3870968 77.4193548v-46.7741935c0-3.5629032-2.8887097-6.4516129-6.4516129-6.4516129v53.2258064z" fill="#f4f4f4"/><path d="m8.06451613 88.7096774h83.87096777c3.5629032 0 6.4516129-2.8887097 6.4516129-6.4516129v-4.8387097h-96.77419357v4.8387097c0 3.5629032 2.88870967 6.4516129 6.4516129 6.4516129z" fill="#fff"/><path d="m91.9354839 88.7096774c3.5629032 0 6.4516129-2.8887097 6.4516129-6.4516129v-4.8387097h-6.4516129z" fill="#f4f4f4"/><path d="m91.9354839 90.3225806h-83.87096777c-4.44677419 0-8.06451613-3.6177419-8.06451613-8.0645161v-51.6129032c0-4.4467742 3.61774194-8.0645161 8.06451613-8.0645161h83.87096777c4.4467742 0 8.0645161 3.6177419 8.0645161 8.0645161v51.6129032c0 4.4467742-3.6177419 8.0645161-8.0645161 8.0645161zm-83.87096777-64.516129c-2.66774194 0-4.83870968 2.1709678-4.83870968 4.8387097v51.6129032c0 2.667742 2.17096774 4.8387097 4.83870968 4.8387097h83.87096777c2.6677419 0 4.8387096-2.1709677 4.8387096-4.8387097v-51.6129032c0-2.6677419-2.1709677-4.8387097-4.8387096-4.8387097z" fill="#b4b4b4"/><path d="m30.6451613 88.7096774h38.7096774v9.6774194h-38.7096774z" fill="#fff"/><path d="m62.903226 88.709677h6.451613v9.677419h-6.451613z" fill="#f4f4f4"/><path d="m70.9677419 100h-41.9354838v-12.9032258h41.9354838zm-38.7096774-3.2258065h35.483871v-6.4516129h-35.483871z" fill="#b4b4b4"/><path d="m22.580645 96.774194h54.83871v3.225806h-54.83871z" fill="#b4b4b4"/><path d="m1.612903 75.806452h96.774194v3.225806h-96.774194z" fill="#b4b4b4"/><circle cx="27.419355" cy="11.290323" fill="#d5e2ff" r="9.677419"/><circle cx="72.580645" cy="11.290323" fill="#d5e2ff" r="9.677419"/><circle cx="27.419355" cy="53.225807" fill="#d5e2ff" r="9.677419"/><circle cx="72.580645" cy="53.225807" fill="#d5e2ff" r="9.677419"/><g fill="#3068eb"><path d="m27.4193548 22.5806452c-6.2258064 0-11.2903225-5.0661291-11.2903225-11.2903226 0-6.22419357 5.0645161-11.2903226 11.2903225-11.2903226 6.2258065 0 11.2903226 5.06612903 11.2903226 11.2903226 0 6.2241935-5.0645161 11.2903226-11.2903226 11.2903226zm0-19.35483875c-4.4467742 0-8.0645161 3.61774194-8.0645161 8.06451615 0 4.4467742 3.6177419 8.0645161 8.0645161 8.0645161s8.0645162-3.6177419 8.0645162-8.0645161c0-4.44677421-3.617742-8.06451615-8.0645162-8.06451615z"/><path d="m27.4193548 12.9032258c-2.6677419 0-4.8387096-2.1709677-4.8387096-4.83870967 0-2.66774194 2.1709677-4.83870968 4.8387096-4.83870968 2.667742 0 4.8387097 2.17096774 4.8387097 4.83870968 0 2.66774197-2.1709677 4.83870967-4.8387097 4.83870967zm0-6.4516129c-.8887096 0-1.6129032.72258065-1.6129032 1.61290323s.7241936 1.61290322 1.6129032 1.61290322c.8887097 0 1.6129033-.72258064 1.6129033-1.61290322s-.7241936-1.61290323-1.6129033-1.61290323z"/><path d="m33.8709677 19.3548387h-3.2258064c0-1.7790322-1.4467742-3.2258064-3.2258065-3.2258064-1.7790322 0-3.2258064 1.4467742-3.2258064 3.2258064h-3.2258065c0-3.5580645 2.8935484-6.4516129 6.4516129-6.4516129 3.5580646 0 6.4516129 2.8935484 6.4516129 6.4516129z"/><path d="m72.5806452 22.5806452c-6.2258065 0-11.2903226-5.0661291-11.2903226-11.2903226 0-6.22419357 5.0645161-11.2903226 11.2903226-11.2903226 6.2258064 0 11.2903225 5.06612903 11.2903225 11.2903226 0 6.2241935-5.0645161 11.2903226-11.2903225 11.2903226zm0-19.35483875c-4.4467742 0-8.0645162 3.61774194-8.0645162 8.06451615 0 4.4467742 3.617742 8.0645161 8.0645162 8.0645161s8.0645161-3.6177419 8.0645161-8.0645161c0-4.44677421-3.6177419-8.06451615-8.0645161-8.06451615z"/><path d="m72.5806452 12.9032258c-2.667742 0-4.8387097-2.1709677-4.8387097-4.83870967 0-2.66774194 2.1709677-4.83870968 4.8387097-4.83870968 2.6677419 0 4.8387096 2.17096774 4.8387096 4.83870968 0 2.66774197-2.1709677 4.83870967-4.8387096 4.83870967zm0-6.4516129c-.8887097 0-1.6129033.72258065-1.6129033 1.61290323s.7241936 1.61290322 1.6129033 1.61290322c.8887096 0 1.6129032-.72258064 1.6129032-1.61290322s-.7241936-1.61290323-1.6129032-1.61290323z"/><path d="m79.0322581 19.3548387h-3.2258065c0-1.7790322-1.4467742-3.2258064-3.2258064-3.2258064-1.7790323 0-3.2258065 1.4467742-3.2258065 3.2258064h-3.2258064c0-3.5580645 2.8935483-6.4516129 6.4516129-6.4516129 3.5580645 0 6.4516129 2.8935484 6.4516129 6.4516129z"/><path d="m27.4193548 64.516129c-6.2258064 0-11.2903225-5.066129-11.2903225-11.2903225 0-6.2241936 5.0645161-11.2903226 11.2903225-11.2903226 6.2258065 0 11.2903226 5.066129 11.2903226 11.2903226 0 6.2241935-5.0645161 11.2903225-11.2903226 11.2903225zm0-19.3548387c-4.4467742 0-8.0645161 3.617742-8.0645161 8.0645162 0 4.4467741 3.6177419 8.0645161 8.0645161 8.0645161s8.0645162-3.617742 8.0645162-8.0645161c0-4.4467742-3.617742-8.0645162-8.0645162-8.0645162z"/><path d="m27.4193548 54.8387097c-2.6677419 0-4.8387096-2.1709678-4.8387096-4.8387097s2.1709677-4.8387097 4.8387096-4.8387097c2.667742 0 4.8387097 2.1709678 4.8387097 4.8387097s-2.1709677 4.8387097-4.8387097 4.8387097zm0-6.4516129c-.8887096 0-1.6129032.7225806-1.6129032 1.6129032s.7241936 1.6129032 1.6129032 1.6129032c.8887097 0 1.6129033-.7225806 1.6129033-1.6129032s-.7241936-1.6129032-1.6129033-1.6129032z"/><path d="m33.8709677 61.2903226h-3.2258064c0-1.7790323-1.4467742-3.2258065-3.2258065-3.2258065-1.7790322 0-3.2258064 1.4467742-3.2258064 3.2258065h-3.2258065c0-3.5580645 2.8935484-6.4516129 6.4516129-6.4516129 3.5580646 0 6.4516129 2.8935484 6.4516129 6.4516129z"/><path d="m72.5806452 64.516129c-6.2258065 0-11.2903226-5.066129-11.2903226-11.2903225 0-6.2241936 5.0645161-11.2903226 11.2903226-11.2903226 6.2258064 0 11.2903225 5.066129 11.2903225 11.2903226 0 6.2241935-5.0645161 11.2903225-11.2903225 11.2903225zm0-19.3548387c-4.4467742 0-8.0645162 3.617742-8.0645162 8.0645162 0 4.4467741 3.617742 8.0645161 8.0645162 8.0645161s8.0645161-3.617742 8.0645161-8.0645161c0-4.4467742-3.6177419-8.0645162-8.0645161-8.0645162z"/><path d="m72.5806452 54.8387097c-2.667742 0-4.8387097-2.1709678-4.8387097-4.8387097s2.1709677-4.8387097 4.8387097-4.8387097c2.6677419 0 4.8387096 2.1709678 4.8387096 4.8387097s-2.1709677 4.8387097-4.8387096 4.8387097zm0-6.4516129c-.8887097 0-1.6129033.7225806-1.6129033 1.6129032s.7241936 1.6129032 1.6129033 1.6129032c.8887096 0 1.6129032-.7225806 1.6129032-1.6129032s-.7241936-1.6129032-1.6129032-1.6129032z"/><path d="m79.0322581 61.2903226h-3.2258065c0-1.7790323-1.4467742-3.2258065-3.2258064-3.2258065-1.7790323 0-3.2258065 1.4467742-3.2258065 3.2258065h-3.2258064c0-3.5580645 2.8935483-6.4516129 6.4516129-6.4516129 3.5580645 0 6.4516129 2.8935484 6.4516129 6.4516129z"/><path d="m41.935484 9.677419h3.225806v3.225806h-3.225806z"/><path d="m48.387097 9.677419h3.225806v3.225806h-3.225806z"/><path d="m54.83871 9.677419h3.225806v3.225806h-3.225806z"/><path d="m41.935484 51.612903h3.225806v3.225806h-3.225806z"/><path d="m48.387097 51.612903h3.225806v3.225806h-3.225806z"/><path d="m54.83871 51.612903h3.225806v3.225806h-3.225806z"/><path d="m70.967742 35.483871h3.225806v3.225806h-3.225806z"/><path d="m70.967742 29.032258h3.225806v3.225806h-3.225806z"/><path d="m25.806452 35.483871h3.225806v3.225806h-3.225806z"/><path d="m25.806452 29.032258h3.225806v3.225806h-3.225806z"/></g><path d="m91.9354839 38.7096774h-3.2258065v-4.8387097h-4.8387097v-3.2258064h8.0645162z" fill="#dfdfdf"/><path d="m16.1290323 70.9677419h-8.06451617v-8.0645161h3.22580647v4.8387097h4.8387097z" fill="#dfdfdf"/><path d="m11.2903226 38.7096774h-3.22580647v-8.0645161h8.06451617v3.2258064h-4.8387097z" fill="#dfdfdf"/><path d="m91.9354839 70.9677419h-8.0645162v-3.2258064h4.8387097v-4.8387097h3.2258065z" fill="#dfdfdf"/><path d="m16.129032 79.032258h3.225806v3.225806h-3.225806z" fill="#fff"/><path d="m22.580645 79.032258h12.903226v3.225806h-12.903226z" fill="#fff"/></g></svg>