<svg height="120" viewBox="0 0 120 120" width="120" xmlns="http://www.w3.org/2000/svg"><g fill="none" fill-rule="nonzero" transform="translate(10 10)"><path d="m54.8387097 14.516129c0-7.12580642-5.7774194-12.90322577-12.9032258-12.90322577-7.1258065 0-12.9032258 5.77741935-12.9032258 12.90322577h-11.2903226c-1.7822581 0-3.2258065 1.4435484-3.2258065 3.2258065v11.2903226c-7.12580642 0-12.90322577 5.7774193-12.90322577 12.9032258 0 7.1258064 5.77741935 12.9032258 12.90322577 12.9032258v11.2903226c0 1.782258 1.4435484 3.2258064 3.2258065 3.2258064h48.3870968c1.782258 0 3.2258064-1.4435484 3.2258064-3.2258064v-48.3870968c0-1.7822581-1.4435484-3.2258065-3.2258064-3.2258065z" fill="#fff"/><path d="m66.1290323 14.516129h-3.2258065v16.1290323h6.4516129v-12.9032258c0-1.7822581-1.4435484-3.2258065-3.2258064-3.2258065z" fill="#f4f4f4"/><path d="m66.1290323 70.9677419h-48.3870968c-2.667742 0-4.8387097-2.1709677-4.8387097-4.8387096v-9.767742c-7.24838709-.8048387-12.9032258-6.966129-12.9032258-14.4258064s5.65483871-13.6209678 12.9032258-14.4258065v-9.7677419c0-2.667742 2.1709677-4.8387097 4.8387097-4.8387097h9.766129c.8048387-7.24838709 6.967742-12.9032258 14.4274194-12.9032258s13.6225806 5.65483871 14.4274193 12.9032258h9.7661291c2.6677419 0 4.8387096 2.1709677 4.8387096 4.8387097v48.3870968c0 2.6677419-2.1709677 4.8387096-4.8387096 4.8387096zm-51.6129033-40.3225806c-6.22580642 0-11.29032255 5.066129-11.29032255 11.2903226 0 6.2241935 5.06451613 11.2903226 11.29032255 11.2903226h1.6129033v12.9032258c0 .8903225.7241935 1.6129032 1.6129032 1.6129032h48.3870968c.8887096 0 1.6129032-.7225807 1.6129032-1.6129032v-48.3870968c0-.8903226-.7241936-1.6129032-1.6129032-1.6129032h-12.9032258v-1.6129033c0-6.22419352-5.0645162-11.29032255-11.2903226-11.29032255-6.2258065 0-11.2903226 5.06612903-11.2903226 11.29032255v1.6129033h-12.9032258c-.8887097 0-1.6129032.7225806-1.6129032 1.6129032v12.9032258z" fill="#b4b4b4"/><path d="m45.1612903 85.483871c0 7.1258064 5.7774194 12.9032258 12.9032258 12.9032258 7.1258065 0 12.9032258-5.7774194 12.9032258-12.9032258h11.2903226c1.7822581 0 3.2258065-1.4435484 3.2258065-3.2258065v-11.2903226c7.1258064 0 12.9032258-5.7774193 12.9032258-12.9032258 0-7.1258064-5.7774194-12.9032258-12.9032258-12.9032258v-11.2903226c0-1.782258-1.4435484-3.2258064-3.2258065-3.2258064h-48.3870968c-1.782258 0-3.2258064 1.4435484-3.2258064 3.2258064v48.3870968c0 1.7822581 1.4435484 3.2258065 3.2258064 3.2258065z" fill="#fff"/><path d="m70.9677419 58.0645161c0-7.1258064-5.7774193-12.9032258-12.9032258-12.9032258-7.1258064 0-12.9032258 5.7774194-12.9032258 12.9032258 0 4.0725807 1.8919355 7.6983871 4.8387097 10.0645162v10.9032258h16.1290323v-10.9032258c2.9467742-2.3661291 4.8387096-5.9919355 4.8387096-10.0645162z"/><path d="m85.483871 45.1612903v-11.2903226c0-1.782258-1.4435484-3.2258064-3.2258065-3.2258064h-1.6129032v54.8387097h1.6129032c1.7822581 0 3.2258065-1.4435484 3.2258065-3.2258065v-11.2903226c7.1258064 0 12.9032258-5.7774193 12.9032258-12.9032258 0-7.1258064-5.7774194-12.9032258-12.9032258-12.9032258z" fill="#d5e2ff"/><path d="m58.0645161 45.1612903c-.8274193 0-1.6354838.0854839-2.4193548.233871 5.9693548 1.133871 10.483871 6.3709677 10.483871 12.6693548 0 4.0725807-1.8919355 7.6983871-4.8387097 10.0645162v10.9032258h4.8387097v-10.9032258c2.9467742-2.3645162 4.8387096-5.9903226 4.8387096-10.0645162 0-7.1258064-5.7774193-12.9032258-12.9032258-12.9032258z" fill="#d5e2ff"/><path d="m58.0645161 100c-7.4596774 0-13.6225806-5.6548387-14.4274193-12.9032258h-9.7661291c-2.6677419 0-4.8387096-2.1709677-4.8387096-4.8387097v-48.3870968c0-2.6677419 2.1709677-4.8387096 4.8387096-4.8387096h48.3870968c2.667742 0 4.8387097 2.1709677 4.8387097 4.8387096v9.767742c7.2483871.8048387 12.9032258 6.966129 12.9032258 14.4258064s-5.6548387 13.6209678-12.9032258 14.4258065v9.7677419c0 2.667742-2.1709677 4.8387097-4.8387097 4.8387097h-9.766129c-.8048387 7.2483871-6.967742 12.9032258-14.4274194 12.9032258zm-24.1935484-67.7419355c-.8887096 0-1.6129032.7225807-1.6129032 1.6129032v48.3870968c0 .8903226.7241936 1.6129032 1.6129032 1.6129032h12.9032258v1.6129033c0 6.2241935 5.0645162 11.2903225 11.2903226 11.2903225 6.2258065 0 11.2903226-5.066129 11.2903226-11.2903225v-1.6129033h12.9032258c.8887097 0 1.6129032-.7225806 1.6129032-1.6129032v-12.9032258h1.6129033c6.2258064 0 11.2903225-5.066129 11.2903225-11.2903226 0-6.2241935-5.0645161-11.2903226-11.2903225-11.2903226h-1.6129033v-12.9032258c0-.8903225-.7241935-1.6129032-1.6129032-1.6129032z" fill="#3068eb"/><path d="m58.0645161 62.9032258c-2.6677419 0-4.8387096-2.1709677-4.8387096-4.8387097 0-2.6677419 2.1709677-4.8387096 4.8387096-4.8387096 2.667742 0 4.8387097 2.1709677 4.8387097 4.8387096 0 2.667742-2.1709677 4.8387097-4.8387097 4.8387097zm0-6.4516129c-.8887096 0-1.6129032.7225806-1.6129032 1.6129032s.7241936 1.6129033 1.6129032 1.6129033c.8887097 0 1.6129033-.7225807 1.6129033-1.6129033s-.7241936-1.6129032-1.6129033-1.6129032z" fill="#3068eb"/><path d="m51.6129032 58.0645161h-3.2258064c0-5.3370967 4.3403226-9.6774193 9.6774193-9.6774193v3.2258064c-3.5580645 0-6.4516129 2.8935484-6.4516129 6.4516129z" fill="#fff"/><g fill="#3068eb"><path d="m67.7419355 80.6451613h-19.3548387v-11.7709678c-3.0854839-2.7564516-4.8387097-6.6532258-4.8387097-10.8096774 0-8.0048387 6.5129032-14.516129 14.516129-14.516129s14.5161291 6.5112903 14.5161291 14.516129c0 4.1564516-1.7532258 8.0532258-4.8387097 10.8096774zm-16.1290323-3.2258065h12.9032258v-10.0645161l.6032258-.4854839c2.6919355-2.1596774 4.2354839-5.3677419 4.2354839-8.8048387 0-6.2241935-5.0645161-11.2903226-11.2903226-11.2903226-6.2258064 0-11.2903226 5.0661291-11.2903226 11.2903226 0 3.4370968 1.5435484 6.6451613 4.2354839 8.8048387l.6032258.4854839z"/><path d="m45.16129 70.967742h25.806452v3.225806h-25.806452z"/><path d="m56.451613 35.483871h3.225806v4.83871h-3.225806z"/><path d="m46.3718204 38.1825988h3.2258968v4.8390468h-3.2258968z" transform="matrix(-.86597574 .500086 -.500086 -.86597574 109.842968 51.766064)"/><path d="m38.987645 45.567271h3.225735v4.838402h-3.225735z" transform="matrix(-.500011 .86601905 -.86601905 -.500011 102.458415 36.819418)"/><path d="m35.483871 56.451613h4.83871v3.225806h-4.83871z"/><path d="m38.177735 66.53493h4.83878v3.225854h-4.83878z" transform="matrix(-.86608735 .49989269 -.49989269 -.86608735 109.824399 106.875647)"/><path d="m73.9118216 65.7229206h3.2257355v4.8384016h-3.2257355z" transform="matrix(-.500011 .86601905 -.86601905 -.500011 172.300239 36.808112)"/><path d="m75.806452 56.451613h4.83871v3.225806h-4.83871z"/><path d="m73.11233 46.37467h4.83878v3.225854h-4.83878z" transform="matrix(-.86608735 .49989269 -.49989269 -.86608735 164.937436 51.791293)"/><path d="m65.7316 38.998187h4.83878v3.225854h-4.83878z" transform="matrix(-.49989269 .86608735 -.86608735 -.49989269 137.391944 1.887603)"/><path d="m56.451613 61.290323h3.225806v11.290323h-3.225806z"/></g><path d="m19.354839 27.419355h3.225806v3.225806h-3.225806z" fill="#dfdfdf"/><path d="m22.5806452 24.1935484h-3.2258065v-4.8387097h8.0645161v3.2258065h-4.8387096z" fill="#dfdfdf"/></g></svg>