<svg height="120" viewBox="0 0 120 120" width="120" xmlns="http://www.w3.org/2000/svg"><g fill="none" fill-rule="nonzero" transform="translate(10 10)"><path d="m56.4516129 85.483871h-48.38709677c-3.56290323 0-6.4516129-2.8887097-6.4516129-6.4516129v-70.96774197c0-3.56290323 2.88870967-6.4516129 6.4516129-6.4516129h48.38709677c3.5629032 0 6.4516129 2.88870967 6.4516129 6.4516129v70.96774197c0 3.5629032-2.8887097 6.4516129-6.4516129 6.4516129z" fill="#fff"/><path d="m56.4516129 1.61290323h-1.6129032v83.87096777h1.6129032c3.5629032 0 6.4516129-2.8887097 6.4516129-6.4516129v-70.96774197c0-3.56290323-2.8887097-6.4516129-6.4516129-6.4516129z" fill="#f4f4f4"/><path d="m1.61290323 9.67741935h61.29032257v62.90322585h-61.29032257z" fill="#fff"/><path d="m54.8387097 9.67741935h8.0645161v62.90322585h-8.0645161z" fill="#f4f4f4"/><path d="m56.4516129 87.0967742h-48.38709677c-4.44677419 0-8.06451613-3.6177419-8.06451613-8.0645161v-70.96774197c0-4.44677419 3.61774194-8.06451613 8.06451613-8.06451613h48.38709677c4.4467742 0 8.0645161 3.61774194 8.0645161 8.06451613v70.96774197c0 4.4467742-3.6177419 8.0645161-8.0645161 8.0645161zm-48.38709677-83.87096775c-2.66774194 0-4.83870968 2.17096774-4.83870968 4.83870968v70.96774197c0 2.6677419 2.17096774 4.8387096 4.83870968 4.8387096h48.38709677c2.6677419 0 4.8387097-2.1709677 4.8387097-4.8387096v-70.96774197c0-2.66774194-2.1709678-4.83870968-4.8387097-4.83870968z" fill="#b4b4b4"/><path d="m1.612903 8.064516h61.290323v3.225806h-61.290323z" fill="#b4b4b4"/><path d="m22.580645 77.419355h19.354839v3.225806h-19.354839z" fill="#dfdfdf"/><path d="m1.612903 70.967742h61.290323v3.225806h-61.290323z" fill="#b4b4b4"/><path d="m8.06451613 16.1290323h48.38709677v9.6774193h-48.38709677z"/><path d="m48.387097 16.129032h8.064516v9.677419h-8.064516z" fill="#f4f4f4"/><path d="m8.064516 32.258065h48.387097v9.677419h-48.387097z"/><path d="m8.064516 48.387097h48.387097v9.677419h-48.387097z"/><path d="m58.0645161 27.4193548h-51.6129032v-12.9032258h51.6129032zm-48.38709675-3.2258064h45.16129035v-6.4516129h-45.16129035z" fill="#dfdfdf"/><path d="m58.0645161 43.5483871h-51.6129032v-12.9032258h51.6129032zm-48.38709675-3.2258065h45.16129035v-6.4516129h-45.16129035z" fill="#dfdfdf"/><path d="m58.0645161 59.6774194h-51.6129032v-12.9032259h51.6129032zm-48.38709675-3.2258065h45.16129035v-6.4516129h-45.16129035z" fill="#dfdfdf"/><path d="m50.8064516 32.2580645c-12.0258064 0-21.7741935 9.7483871-21.7741935 21.7741936v18.5483871c0 14.2532258 11.5532258 25.8064516 25.8064516 25.8064516h23.3870968c11.1354838 0 20.1612903-9.0258065 20.1612903-20.1612903 0-9.7532259-6.9258065-17.8903226-16.1290323-19.7580646-.2758064-.0564516-.8677419-.1064516-1.6306451-.1516129-4.3806452-.2564516-7.8580646-3.6516129-8.3741936-8.0096774-.0145161-.1209677-.0290323-.2241935-.0451613-.3064516-1.8903226-10.0983871-10.7532258-17.7419355-21.4016129-17.7419355z" fill="#fff"/><path d="m82.2580645 58.4677419c-.2758064-.0564516-.8677419-.1064516-1.6306451-.1516129-4.3806452-.2564516-7.8580646-3.6516129-8.3741936-8.0096774-.0145161-.1209677-.0290323-.2241935-.0451613-.3064516-1.8903226-10.0983871-10.7532258-17.7419355-21.4016129-17.7419355-1.0903226 0-2.1516129.1064516-3.1983871.2612903 9.1580645 1.3741936 16.4564516 8.433871 18.15 17.483871.0145161.0822581.0306452.183871.0451613.3064516.516129 4.3580645 3.9951613 7.7532258 8.3741936 8.0096774.7629032.0451613 1.3548387.0951613 1.6306451.1516129 9.2032258 1.867742 16.1290323 10.0048388 16.1290323 19.7580646-.0016129 11.132258-9.0274194 20.1580645-20.1629033 20.1580645h6.451613c11.1354838 0 20.1612903-9.0258065 20.1612903-20.1612903 0-9.7532259-6.9258065-17.8903226-16.1290323-19.7580646z" fill="#f4f4f4"/><path d="m78.2258065 100h-23.3870968c-15.1193549 0-27.4193549-12.3-27.4193549-27.4193548v-18.5483871c0-12.8951613 10.4919355-23.3870968 23.3870968-23.3870968 11.2532258 0 20.9209678 8.016129 22.9887097 19.0596774.0225806.1258065.0419355.2596774.0596774.416129.4290323 3.6064517 3.316129 6.3774194 6.8677419 6.5854839 1.2064517.0725807 1.6241936.133871 1.8516129.1790323 10.0983871 2.05 17.4258065 11.0241935 17.4258065 21.3403226 0 12.0064516-9.7677419 21.7741935-21.7741935 21.7741935zm-27.4193549-66.1290323c-11.1177419 0-20.1612903 9.0435484-20.1612903 20.1612904v18.5483871c0 13.3403225 10.8532258 24.1935483 24.1935484 24.1935483h23.3870968c10.2274193 0 18.548387-8.3209677 18.548387-18.548387 0-8.7870968-6.2403225-16.4322581-14.8370967-18.1774194-.0403226-.0096774-.3225807-.0580645-1.4048387-.1225806-5.1112904-.2983871-9.267742-4.2629033-9.8806452-9.4274194l-.0322581-.2225806c-1.7758064-9.4967742-10.1112903-16.4048388-19.8129032-16.4048388z" fill="#b4b4b4"/><g fill="#fff"><circle cx="45.16129" cy="51.612903" r="6.451613"/><circle cx="45.16129" cy="70.967742" r="6.451613"/><circle cx="58.064516" cy="85.483871" r="6.451613"/></g><path d="m45.1612903 59.6774194c-4.4467742 0-8.0645161-3.617742-8.0645161-8.0645162s3.6177419-8.0645161 8.0645161-8.0645161 8.0645162 3.6177419 8.0645162 8.0645161-3.617742 8.0645162-8.0645162 8.0645162zm0-12.9032259c-2.6677419 0-4.8387097 2.1709678-4.8387097 4.8387097 0 2.667742 2.1709678 4.8387097 4.8387097 4.8387097 2.667742 0 4.8387097-2.1709677 4.8387097-4.8387097 0-2.6677419-2.1709677-4.8387097-4.8387097-4.8387097z" fill="#b4b4b4"/><path d="m45.1612903 79.0322581c-4.4467742 0-8.0645161-3.617742-8.0645161-8.0645162s3.6177419-8.0645161 8.0645161-8.0645161 8.0645162 3.6177419 8.0645162 8.0645161-3.617742 8.0645162-8.0645162 8.0645162zm0-12.9032258c-2.6677419 0-4.8387097 2.1709677-4.8387097 4.8387096 0 2.667742 2.1709678 4.8387097 4.8387097 4.8387097 2.667742 0 4.8387097-2.1709677 4.8387097-4.8387097 0-2.6677419-2.1709677-4.8387096-4.8387097-4.8387096z" fill="#b4b4b4"/><path d="m58.0645161 93.5483871c-4.4467742 0-8.0645161-3.6177419-8.0645161-8.0645161s3.6177419-8.0645162 8.0645161-8.0645162 8.0645162 3.617742 8.0645162 8.0645162-3.617742 8.0645161-8.0645162 8.0645161zm0-12.9032258c-2.6677419 0-4.8387096 2.1709677-4.8387096 4.8387097 0 2.6677419 2.1709677 4.8387096 4.8387096 4.8387096 2.667742 0 4.8387097-2.1709677 4.8387097-4.8387096 0-2.667742-2.1709677-4.8387097-4.8387097-4.8387097z" fill="#b4b4b4"/><circle cx="82.258065" cy="77.419355" fill="#fff" r="6.451613"/><path d="m80.6451613 83.8709677-3.2145161-49.8177419c-.0080646-.1209677-.0112904-.2435484-.0112904-.3645161v-3.85c0-3.117742 2.5274194-5.6451613 5.6451613-5.6451613 3.117742 0 5.6451613 2.5274193 5.6451613 5.6451613v3.7596774c0 .1822581-.0080645.3629032-.0258064.5435484l-4.8129033 49.7290322z" fill="#fff"/><path d="m83.8709677 24.2741935v59.5967742l4.8129033-49.7290322c.0177419-.1806452.0258064-.3612903.0258064-.5435484v-3.7596774c0-2.8419355-2.1064516-5.1693549-4.8387097-5.5645162z" fill="#d5e2ff"/><path d="m85.4758065 84.0274194-3.2096775-.3112904 4.8112904-49.7290322c.0129032-.1274194.0193548-.2580645.0193548-.3870968v-3.7612903c0-2.2241936-1.8080645-4.0322581-4.0322581-4.0322581-2.2241935 0-4.032258 1.8080645-4.032258 4.0322581v3.8516129c0 .0854839.0016129.1709677.0080645.2580645l3.2145161 49.8193548-3.2193548.2080646-3.2145162-49.8193549c-.0096774-.1564516-.0145161-.3129032-.0145161-.466129v-3.8516129c0-4.0016129 3.2564516-7.2580645 7.2580645-7.2580645s7.2580645 3.2564516 7.2580645 7.2580645v3.7596774c0 .233871-.0129032.4645161-.0338709.6983871z" fill="#3068eb"/><path d="m77.419355 32.258065h6.451613v3.225806h-6.451613z" fill="#3068eb"/><path d="m85.483871 3.22580645s-9.6774194 4.83870968-9.6774194 12.90322585c0 4.8387096 3.2258065 8.0645161 6.4516129 8.0645161 3.2258065 0 6.4516129-1.6129032 6.4516129-6.4516129 0-1.8145161-.4532258-3.1758065-1.0209677-4.167742-1.3483871-2.3596774-2.2048387-4.96612898-2.2048387-7.68387092z" fill="#d5e2ff"/><path d="m82.2580645 25.8064516c-3.8774193 0-8.0645161-3.7-8.0645161-9.6774193 0-8.95806456 10.1370968-14.1306452 10.5693548-14.34677424l2.333871-1.16612903v5.27580645c0 2.25322581.6709677 4.56935482 1.9919355 6.88387102.8193548 1.4306451 1.2338709 3.1016129 1.2338709 4.966129 0 5.9467742-4.166129 8.0645161-8.0645161 8.0645161zm1.6145161-19.68064515c-2.6032258 1.8516129-6.4532258 5.37580645-6.4532258 10.00322585 0 3.9854838 2.5129033 6.4516129 4.8387097 6.4516129 2.2064516 0 4.8387097-.8403226 4.8387097-4.8387097 0-1.2967742-.2725807-2.4290323-.8080645-3.367742-1.5596774-2.7290322-2.3725807-5.50322576-2.4161291-8.24838705z" fill="#3068eb"/><path d="m82.2580645 85.483871c-4.4467742 0-8.0645161-3.617742-8.0645161-8.0645162 0-2.8403225 1.5435484-5.5032258 4.0274193-6.9516129l1.6225807 2.7887097c-1.5177419.883871-2.4241936 2.4403226-2.4241936 4.1629032 0 2.667742 2.1709678 4.8387097 4.8387097 4.8387097 2.667742 0 4.8387097-2.1709677 4.8387097-4.8387097 0-1.7225806-.9064516-3.2790322-2.4241936-4.1629032l1.6225807-2.7887097c2.483871 1.4483871 4.0274193 4.1112904 4.0274193 6.9516129 0 4.4467742-3.6177419 8.0645162-8.0645161 8.0645162z" fill="#3068eb"/><path d="m67.7419355 54.0322581h-3.2258065c0-5.6483871-3.3983871-10.6483871-8.6596774-12.7354839l1.1903226-2.9983871c6.4967742 2.5790323 10.6951613 8.7548387 10.6951613 15.733871z" fill="#fff"/><path d="m52.9725806 40.5112903c-.8-.1274193-1.5096774-.1887097-2.166129-.1887097v-3.2258064c.8306452 0 1.7048387.0758064 2.6725807.2306452z" fill="#fff"/></g></svg>