<svg height="120" viewBox="0 0 120 120" width="120" xmlns="http://www.w3.org/2000/svg"><g fill="none" fill-rule="nonzero" transform="translate(10 10)"><path d="m16.129032 1.612903h82.258065v12.903226h-82.258065z" fill="#fff"/><path d="m91.935484 1.612903h6.451613v12.903226h-6.451613z" fill="#f4f4f4"/><path d="m16.129032 14.516129h82.258065v38.709677h-82.258065z" fill="#fff"/><path d="m91.935484 14.516129h6.451613v38.709677h-6.451613z" fill="#f4f4f4"/><path d="m100 54.8387097h-85.483871v-54.8387097h85.483871zm-82.2580645-3.2258065h79.032258v-48.38709675h-79.032258z" fill="#b4b4b4"/><path d="m20.967742 6.451613h3.225806v3.225806h-3.225806z" fill="#dfdfdf"/><path d="m27.419355 6.451613h3.225806v3.225806h-3.225806z" fill="#dfdfdf"/><path d="m33.870968 6.451613h3.225806v3.225806h-3.225806z" fill="#dfdfdf"/><path d="m16.129032 12.903226h82.258065v3.225806h-82.258065z" fill="#b4b4b4"/><path d="m22.580645 20.967742h38.709677v19.354839h-38.709677z" fill="#fff"/><path d="m56.451613 20.967742h4.83871v19.354839h-4.83871z" fill="#f4f4f4"/><path d="m62.9032258 41.9354839h-41.9354839v-22.5806452h41.9354839zm-38.7096774-3.2258065h35.483871v-16.1290322h-35.483871z" fill="#dfdfdf"/><path d="m51.6129032 85.483871h-43.54838707c-3.56290323 0-6.4516129 2.8887096-6.4516129 6.4516129 0 3.5629032 2.88870967 6.4516129 6.4516129 6.4516129h43.54838707z" fill="#fff"/><path d="m43.548387 85.483871h8.064516v12.903226h-8.064516z" fill="#f4f4f4"/><path d="m53.2258065 100h-45.16129037c-4.44677419 0-8.06451613-3.6177419-8.06451613-8.0645161s3.61774194-8.0645162 8.06451613-8.0645162h45.16129037zm-45.16129037-12.9032258c-2.66774194 0-4.83870968 2.1709677-4.83870968 4.8387097 0 2.6677419 2.17096774 4.8387096 4.83870968 4.8387096h41.93548387v-9.6774193z" fill="#b4b4b4"/><path d="m8.064516 90.322581h3.225806v3.225806h-3.225806z" fill="#dfdfdf"/><path d="m14.516129 90.322581h32.258065v3.225806h-32.258065z" fill="#dfdfdf"/><path d="m51.6129032 72.5806452h-43.54838707c-3.56290323 0-6.4516129 2.8887096-6.4516129 6.4516129 0 3.5629032 2.88870967 6.4516129 6.4516129 6.4516129h43.54838707z" fill="#f4f4f4"/><path d="m43.548387 72.580645h8.064516v12.903226h-8.064516z" fill="#f4f4f4"/><path d="m53.2258065 87.0967742h-45.16129037c-4.44677419 0-8.06451613-3.6177419-8.06451613-8.0645161s3.61774194-8.0645162 8.06451613-8.0645162h45.16129037zm-45.16129037-12.9032258c-2.66774194 0-4.83870968 2.1709677-4.83870968 4.8387097 0 2.6677419 2.17096774 4.8387096 4.83870968 4.8387096h41.93548387v-9.6774193z" fill="#b4b4b4"/><path d="m8.064516 77.419355h3.225806v3.225806h-3.225806z" fill="#dfdfdf"/><path d="m14.516129 77.419355h32.258065v3.225806h-32.258065z" fill="#dfdfdf"/><path d="m51.6129032 59.6774194h-43.54838707c-3.56290323 0-6.4516129 2.8887096-6.4516129 6.4516129 0 3.5629032 2.88870967 6.4516129 6.4516129 6.4516129h43.54838707z" fill="#fff"/><path d="m43.548387 59.677419h8.064516v12.903226h-8.064516z" fill="#f4f4f4"/><path d="m53.2258065 74.1935484h-45.16129037c-4.44677419 0-8.06451613-3.6177419-8.06451613-8.0645161s3.61774194-8.0645162 8.06451613-8.0645162h45.16129037zm-45.16129037-12.9032258c-2.66774194 0-4.83870968 2.1709677-4.83870968 4.8387097 0 2.6677419 2.17096774 4.8387096 4.83870968 4.8387096h41.93548387v-9.6774193z" fill="#b4b4b4"/><path d="m8.064516 64.516129h3.225806v3.225806h-3.225806z" fill="#dfdfdf"/><path d="m14.516129 64.516129h32.258065v3.225806h-32.258065z" fill="#dfdfdf"/><path d="m51.6129032 46.7741935h-43.54838707c-3.56290323 0-6.4516129 2.8887097-6.4516129 6.451613 0 3.5629032 2.88870967 6.4516129 6.4516129 6.4516129h43.54838707z" fill="#f4f4f4"/><path d="m43.548387 46.774194h8.064516v12.903226h-8.064516z" fill="#f4f4f4"/><path d="m53.2258065 61.2903226h-45.16129037c-4.44677419 0-8.06451613-3.617742-8.06451613-8.0645161 0-4.4467742 3.61774194-8.0645162 8.06451613-8.0645162h45.16129037zm-45.16129037-12.9032258c-2.66774194 0-4.83870968 2.1709677-4.83870968 4.8387097 0 2.6677419 2.17096774 4.8387096 4.83870968 4.8387096h41.93548387v-9.6774193z" fill="#b4b4b4"/><path d="m8.064516 51.612903h3.225806v3.225806h-3.225806z" fill="#dfdfdf"/><path d="m14.516129 51.612903h32.258065v3.225806h-32.258065z" fill="#dfdfdf"/><path d="m95.1612903 46.7741935-14.516129-16.1290322-14.516129 16.1290322h6.4516129v51.6129033h16.1290322v-51.6129033z" fill="#d5e2ff"/><path d="m95.1612903 46.7741935-11.2903226-12.5451612v64.1580645h4.8387097v-51.6129033z" fill="#aec6ff"/><path d="m90.3225806 100h-19.3548387v-51.6129032h-8.4596774l18.1370968-20.1532258 18.1370968 20.1532258h-8.4596775zm-16.1290322-3.2258065h12.9032258v-51.6129032h4.4435484l-10.8951613-12.1048387-10.8951613 12.1048387h4.4435484z" fill="#3068eb"/><path d="m85.483871 74.1935484-14.5161291-16.1290323-14.516129 16.1290323h6.4516129v24.1935484h16.1290323v-24.1935484z" fill="#d5e2ff"/><path d="m85.483871 74.1935484-11.2903226-12.5451613v36.7387097h4.8387097v-24.1935484z" fill="#aec6ff"/><path d="m80.6451613 100h-19.3548387v-24.1935484h-8.4596774l18.1370967-20.1532258 18.1370968 20.1532258h-8.4596774zm-16.1290323-3.2258065h12.9032258v-24.1935483h4.4435484l-10.8951613-12.1048387-10.8951613 12.1048387h4.4435484z" fill="#3068eb"/><g fill="#fff"><path d="m67.741936 90.322581h3.225806v3.225806h-3.225806z"/><path d="m67.741936 72.580645h3.225806v14.516129h-3.225806z"/><path d="m77.419355 56.451613h3.225806v3.225806h-3.225806z"/><path d="m77.419355 45.16129h3.225806v8.064516h-3.225806z"/><path d="m27.419355 25.806452h3.225806v3.225806h-3.225806z"/><path d="m33.870968 25.806452h19.354839v3.225806h-19.354839z"/></g></g></svg>