<svg height="120" viewBox="0 0 120 120" width="120" xmlns="http://www.w3.org/2000/svg"><g fill="none" fill-rule="nonzero" transform="translate(10 10)"><path d="m98.3870968 85.325v6.4516129c0 3.5645161-2.8870968 6.4516129-6.4516129 6.4516129h-83.87096777c-3.56451613 0-6.4516129-2.8870968-6.4516129-6.4516129v-6.4516129z" fill="#fff"/><path d="m90.3225806 98.2282258h1.6129033c3.5645161 0 6.4516129-2.8870968 6.4516129-6.4516129v-6.4516129h-8.0645162z" fill="#f4f4f4"/><path d="m53.225807 85.325h6.451613v6.451613h-6.451613z" fill="#f4f4f4"/><path d="m61.2903226 93.3895161h-22.5806452v-9.6774193h22.5806452zm-19.3548387-3.2258064h16.1290322v-3.2258065h-16.1290322z" fill="#b4b4b4"/><path d="m85.483871 24.0346774h-70.967742c-3.5629032 0-6.45161287 2.8887097-6.45161287 6.4516129v54.8387097h83.87096777v-54.8387097c0-3.5629032-2.8887097-6.4516129-6.4516129-6.4516129z" fill="#fff"/><path d="m85.483871 24.0346774v61.2903226h6.4516129v-54.8387097c0-3.5629032-2.8887097-6.4516129-6.4516129-6.4516129z" fill="#f4f4f4"/><path d="m93.5483871 86.9379032h-87.0967742v-56.4516129c0-4.4467742 3.6177419-8.0645161 8.0645161-8.0645161h70.967742c4.4467742 0 8.0645161 3.6177419 8.0645161 8.0645161zm-83.87096775-3.2258064h80.64516125v-53.2258065c0-2.6677419-2.1709677-4.8387097-4.8387096-4.8387097h-70.967742c-2.6677419 0-4.83870965 2.1709678-4.83870965 4.8387097z" fill="#b4b4b4"/><path d="m16.129032 32.099194h67.741936v53.225807h-67.741936z" fill="#fff"/><path d="m75.8064516 32.0991935h8.0645161v53.2258065h-8.0645161z" fill="#f4f4f4"/><path d="m85.483871 86.9379032h-70.967742v-56.4516129h70.967742zm-67.7419355-3.2258064h64.516129v-50h-64.516129z" fill="#dfdfdf"/><path d="m91.9354839 99.841129h-83.87096777c-4.44677419 0-8.06451613-3.6177419-8.06451613-8.0645161v-8.0645161h100v8.0645161c0 4.4467742-3.6177419 8.0645161-8.0645161 8.0645161zm-88.70967745-12.9032258v4.8387097c0 2.6677419 2.17096774 4.8387097 4.83870968 4.8387097h83.87096777c2.6677419 0 4.8387096-2.1709678 4.8387096-4.8387097v-4.8387097z" fill="#b4b4b4"/><path d="m58.0645161 12.7443548h-12.9032258l6.4516129-9.67741932z" fill="#fff"/><path d="m69.3548387 46.6153226h-38.7096774v25.8064516c0 3.5629032 2.8887097 6.4516129 6.4516129 6.4516129h25.8064516c3.5629032 0 6.4516129-2.8887097 6.4516129-6.4516129z" fill="#d5e2ff"/><path d="m61.2903226 78.8733871h1.6129032c3.5629032 0 6.4516129-2.8887097 6.4516129-6.4516129v-25.8064516h-8.0645161z" fill="#aec6ff"/><path d="m62.9032258 80.4862903h-25.8064516c-4.4467742 0-8.0645161-3.6177419-8.0645161-8.0645161v-25.8064516h3.2258064v25.8064516c0 2.6677419 2.1709678 4.8387097 4.8387097 4.8387097h25.8064516c2.6677419 0 4.8387097-2.1709678 4.8387097-4.8387097v-25.8064516h3.2258064v25.8064516c0 4.4467742-3.6177419 8.0645161-8.0645161 8.0645161z" fill="#3068eb"/><path d="m67.7419355 36.9379032h-35.483871c-2.6725806 0-4.8387097 2.1661291-4.8387097 4.8387097 0 2.6725806 2.1661291 4.8387097 4.8387097 4.8387097h35.483871c2.6725806 0 4.8387097-2.1661291 4.8387097-4.8387097 0-2.6725806-2.1661291-4.8387097-4.8387097-4.8387097z" fill="#d5e2ff"/><path d="m67.7419355 36.9379032h-9.6774194v9.6774194h9.6774194c2.6725806 0 4.8387097-2.1661291 4.8387097-4.8387097s-2.1661291-4.8387097-4.8387097-4.8387097z" fill="#aec6ff"/><path d="m67.7419355 48.2282258h-3.2258065v-3.2258064h3.2258065c1.7790322 0 3.2258064-1.4467742 3.2258064-3.2258065s-1.4467742-3.2258064-3.2258064-3.2258064h-35.483871c-1.7790322 0-3.2258064 1.4467741-3.2258064 3.2258064s1.4467742 3.2258065 3.2258064 3.2258065h29.0322581v3.2258064h-29.0322581c-3.5580645 0-6.4516129-2.8935484-6.4516129-6.4516129s2.8935484-6.4516129 6.4516129-6.4516129h35.483871c3.5580645 0 6.4516129 2.8935484 6.4516129 6.4516129s-2.8935484 6.4516129-6.4516129 6.4516129z" fill="#3068eb"/><path d="m58.0645161 12.7443548v24.1935484h-12.9032258v-24.1935484h6.4516129z" fill="#d5e2ff"/><path d="m58.0645161 12.7443548v24.1935484h-6.4516129v-24.1935484h3.2258065z" fill="#aec6ff"/><path d="m59.6774194 38.5508065h-16.1290323v-26.2951613l8.0645161-12.09677423 8.0645162 12.09677423zm-12.9032259-3.2258065h9.6774194v-22.0919355l-4.8387097-7.2580645-4.8387097 7.2580645z" fill="#3068eb"/><path d="m25.8064516 4.67983871-1.6129032 11.29032259 11.2903226-4.8387097z" fill="#fff"/><path d="m35.483871 11.1314516-11.2903226 4.8387097 9.6774193 20.9677419h11.2903226v-4.8387097z" fill="#d5e2ff"/><path d="m35.483871 11.1314516-4.0741936 1.7467742 10.5258065 24.0596774h3.2258064v-4.8387097z" fill="#aec6ff"/><path d="m45.16129 11.131452h12.903226v3.225806h-12.903226z" fill="#3068eb"/><path d="m50 12.7443548h3.2258065v16.1290323h-3.2258065z" fill="#3068eb"/><path d="m69.3548387 36.9379032 14.516129-29.03225804-11.2903225-4.83870968-14.5161291 25.80645162v8.0645161z" fill="#fff"/><path d="m79.166129 5.88951613-16.2629032 31.04838707h6.4516129l14.516129-29.03225804z" fill="#d5e2ff"/><g fill="#3068eb"><path d="m70.3516129 38.5508065h-13.9v-10.1l15.4322581-27.43709682 14.1951613 6.08225806zm-10.6741935-3.2258065h8.6806451l13.3048387-26.61129032-8.3854838-3.59516129-13.6 24.17741931z"/><path d="m46.7741935 38.5508065h-13.9354838l-10.3096774-22.3370968 2.0419354-14.29516131 12.1870968 8.12419351 10.016129 21.7016129zm-11.8709677-3.2258065h8.6451613v-2.8709677l-9.3387097-20.233871-7.1677419-4.77903227-1.183871 8.28548387z"/><path d="m23.697291 11.9369315h12.2830276v3.2238764h-12.2830276z" transform="matrix(-.91923294 .3937141 -.3937141 -.91923294 62.601999 14.255479)"/><path d="m50 32.099194h3.225806v4.83871h-3.225806z"/></g><path d="m35.483871 51.454032h3.225806v3.225806h-3.225806z" fill="#fff"/><path d="m41.935484 51.454032h16.129032v3.225806h-16.129032z" fill="#fff"/></g></svg>