<svg height="120" viewBox="0 0 120 120" width="120" xmlns="http://www.w3.org/2000/svg"><g fill="none" fill-rule="evenodd"><path d="m25.3368209 86.1564516-3.1436619-.7c1.5404426-6.9629032 4.9883299-13.3645161 9.967002-18.5145161l2.3114688 2.2467742c-4.56499 4.7177419-7.7231389 10.5870968-9.1348089 16.9677419zm69.1251509 0c-1.41167-6.3806451-4.5698189-12.25-9.1348088-16.9693548l2.3114688-2.2467742c4.9802817 5.15 8.4265593 11.5516129 9.967002 18.5145161z" fill="#b4b4b4"/><g fill-rule="nonzero" transform="translate(10 10)"><path d="m49.8993964 1.61290323c-1.0865191 0-2.1585513.06290322-3.2193159.16290322 17.157344 1.62580645 30.583501 16.09032255 30.583501 33.70806455 0 17.6177419-13.426157 32.082258-30.583501 33.7080645 1.0607646.1 2.1327968.1629032 3.2193159.1629032 18.6688129 0 33.8028169-15.1645161 33.8028169-33.8709677s-15.134004-33.87096777-33.8028169-33.87096777z" fill="#f4f4f4"/><g fill="#dfdfdf"><path d="m48.289738 1.612903h3.219316v67.741936h-3.219316z"/><path d="m16.09658 33.870968h67.605634v3.225806h-67.605634z"/><path d="m50.8458753 70.6596774-1.8945675-2.6080645c.1706238-.1258064 17.0446681-12.7 17.0446681-32.5677419 0-19.9161291-16.8724347-32.44193552-17.0430584-32.56612906l1.8929578-2.60806452c.7501006.54516129 18.3694165 13.63387098 18.3694165 35.17419358 0 21.5403225-17.6193159 34.6290322-18.3694165 35.1758064z"/><path d="m49.8993964 24.1935484c-19.8615694 0-26.7283702-8.316129-27.01167-8.6693549l2.507847-2.0241935c.0595574.0741935 6.3501006 7.4677419 24.503823 7.4677419 18.1537223 0 24.4442656-7.3935484 24.5054326-7.4677419l2.5078471 2.0241935c-.2849095.3532259-7.1517103 8.6693549-27.0132797 8.6693549z"/><path d="m48.9529175 70.6596774c-.7501006-.5467742-18.3694165-13.6354839-18.3694165-35.1758064 0-21.5403226 17.6193159-34.62903229 18.3694165-35.17580648l1.8945674 2.60806451c-.1706237.12580645-17.044668 12.69999997-17.044668 32.56774197 0 19.916129 16.8724346 32.4419355 17.0430584 32.566129z"/><path d="m74.404829 57.4677419c-.061167-.0741935-6.3517103-7.4677419-24.5054326-7.4677419-18.1537224 0-24.4442656 7.3935484-24.5054326 7.4677419l-2.5078471-2.0241935c.2849095-.3532258 7.1517103-8.6693549 27.0132797-8.6693549s26.7283702 8.3161291 27.01167 8.6693549z"/></g><path d="m1.609658 75.806452h25.754527v16.129032h-25.754527z" fill="#fff"/><path d="m19.315895 75.806452h8.04829v16.129032h-8.04829z" fill="#f4f4f4"/><path d="m49.8993964 70.9677419c-19.5267606 0-35.4124749-15.9177419-35.4124749-35.4838709 0-19.5661291 15.8857143-35.483871 35.4124749-35.483871 19.5267605 0 35.4124748 15.9177419 35.4124748 35.483871 0 19.566129-15.8857143 35.4838709-35.4124748 35.4838709zm0-67.74193545c-17.7513079 0-32.193159 14.47096775-32.193159 32.25806455 0 17.7870967 14.4418511 32.2580645 32.193159 32.2580645 17.7513078 0 32.1931589-14.4709678 32.1931589-32.2580645 0-17.7870968-14.4418511-32.25806455-32.1931589-32.25806455z" fill="#b4b4b4"/><path d="m28.9738431 93.5483871h-28.9738431v-19.3548387h28.9738431zm-25.7545272-3.2258065h22.5352113v-12.9032258h-22.5352113z" fill="#b4b4b4"/><path d="m3.219316 96.774194h22.535211v3.225806h-22.535211z" fill="#b4b4b4"/><path d="m8.04829 91.935484h12.877264v6.451613h-12.877264z" fill="#fff"/><path d="m16.09658 91.935484h4.828974v6.451613h-4.828974z" fill="#f4f4f4"/><path d="m22.5352113 100h-16.09657951v-9.6774194h16.09657951zm-12.87726361-3.2258065h9.65794771v-3.2258064h-9.65794771z" fill="#b4b4b4"/><path d="m37.022133 75.806452h25.754527v16.129032h-25.754527z" fill="#fff"/><path d="m54.72837 75.806452h8.04829v16.129032h-8.04829z" fill="#f4f4f4"/><path d="m64.3863179 93.5483871h-28.9738431v-19.3548387h28.9738431zm-25.7545272-3.2258065h22.5352113v-12.9032258h-22.5352113z" fill="#b4b4b4"/><path d="m38.631791 96.774194h22.535211v3.225806h-22.535211z" fill="#b4b4b4"/><path d="m43.460765 91.935484h12.877264v6.451613h-12.877264z" fill="#fff"/><path d="m51.509054 91.935484h4.828974v6.451613h-4.828974z" fill="#f4f4f4"/><path d="m57.9476861 100h-16.0965795v-9.6774194h16.0965795zm-12.8772636-3.2258065h9.6579477v-3.2258064h-9.6579477z" fill="#b4b4b4"/><path d="m72.434608 75.806452h25.754527v16.129032h-25.754527z" fill="#fff"/><path d="m90.140845 75.806452h8.04829v16.129032h-8.04829z" fill="#f4f4f4"/><path d="m99.7987928 93.5483871h-28.9738431v-19.3548387h28.9738431zm-25.7545272-3.2258065h22.5352113v-12.9032258h-22.5352113z" fill="#b4b4b4"/><path d="m74.044266 96.774194h22.535211v3.225806h-22.535211z" fill="#b4b4b4"/><path d="m78.873239 91.935484h12.877264v6.451613h-12.877264z" fill="#fff"/><path d="m86.921529 91.935484h4.828974v6.451613h-4.828974z" fill="#f4f4f4"/><path d="m93.360161 100h-16.0965795v-9.6774194h16.0965795zm-12.8772636-3.2258065h9.6579477v-3.2258064h-9.6579477z" fill="#b4b4b4"/><path d="m1.609658 19.354839h41.851107v32.258065h-41.851107z" fill="#fff"/><path d="m35.412475 19.354839h8.04829v32.258065h-8.04829z" fill="#d5e2ff"/><path d="m45.0704225 53.2258065h-45.0704225v-35.483871h45.0704225zm-41.8511066-3.2258065h38.6317907v-29.0322581h-38.6317907z" fill="#3068eb"/><path d="m6.438632 24.193548h32.193159v3.225806h-32.193159z" fill="#3068eb"/><path d="m6.438632 30.645161h32.193159v3.225806h-32.193159z" fill="#3068eb"/><path d="m6.438632 37.096774h32.193159v3.225806h-32.193159z" fill="#3068eb"/><path d="m35.412475 43.548387h3.219316v3.225806h-3.219316z" fill="#3068eb"/><path d="m6.438632 43.548387h25.754527v3.225806h-25.754527z" fill="#3068eb"/><path d="m56.338028 19.354839h41.851107v32.258065h-41.851107z" fill="#fff"/><path d="m90.140845 19.354839h8.04829v32.258065h-8.04829z" fill="#d5e2ff"/><path d="m99.7987928 53.2258065h-45.0704226v-35.483871h45.0704226zm-41.8511067-3.2258065h38.6317908v-29.0322581h-38.6317908z" fill="#3068eb"/><path d="m61.167002 24.193548h32.193159v3.225806h-32.193159z" fill="#3068eb"/><path d="m61.167002 30.645161h32.193159v3.225806h-32.193159z" fill="#3068eb"/><path d="m61.167002 37.096774h32.193159v3.225806h-32.193159z" fill="#3068eb"/><path d="m90.140845 43.548387h3.219316v3.225806h-3.219316z" fill="#3068eb"/><path d="m61.167002 43.548387h25.754527v3.225806h-25.754527z" fill="#3068eb"/><path d="m6.438632 80.645161h3.219316v3.225806h-3.219316z" fill="#fff"/><path d="m12.877264 80.645161h9.657948v3.225806h-9.657948z" fill="#fff"/><path d="m41.851107 80.645161h3.219316v3.225806h-3.219316z" fill="#fff"/><path d="m48.289738 80.645161h9.657948v3.225806h-9.657948z" fill="#fff"/><path d="m77.263582 80.645161h3.219316v3.225806h-3.219316z" fill="#fff"/><path d="m83.702213 80.645161h9.657948v3.225806h-9.657948z" fill="#fff"/></g></g></svg>