<svg height="48" viewBox="0 0 48 48" width="48" xmlns="http://www.w3.org/2000/svg"><g fill="none" fill-rule="evenodd" transform="translate(6.857143 6.857143)"><path d="m7.83575243 16.8138752v-3.4772125c0-.0524847.00273313-.1053583.00273313-.1609532l6.73444974 1.9691503c-2.9580352.3693372-5.6661836 1.2802394-6.73718287 1.6690154zm17.43077677.4222107c-.2498868.4412607-.5493606.8385898-.903497 1.1912096-.591529.5889956-1.3154199 1.0388094-2.1689395 1.3471088-.8535197.3082994-1.8284687.4638097-2.925628.4638097h-11.43271227v-2.7995758c1.34704611-.3860546 5.61034947-1.513505 9.26845817-1.4746274 3.3024105.0415991 6.3467347.7748306 8.1623186 1.2720751zm.8980307-3.9577396v.1306288c0 1.0664125-.1534461 2.0247453-.4587765 2.868778-.0445111.1251858-.0917554.2472615-.1452468.3666157-1.2615379-.4416495-3.4878733-1.1301718-5.9043569-1.4633528zm0-6.7705338v6.7067746l-7.2322711 1.174881 5.4932151-4.5933883-6.4525462 4.1599031 3.3523879-6.5318254-3.8978439 5.7153958-.466976-6.40974971-.3416421 6.62085511-4.0415288-5.9265012 3.2813262 6.3903109-6.2335047-4.0183886 5.421763 4.5350719-7.20845374-1.1721596c.01678928-.9746614.1702354-1.8606819.4646333-2.6549512.31235852-.84403269.76566883-1.56054684 1.36266405-2.14954246.59777609-.58860684 1.31893389-1.0442523 2.16698719-1.36615882.847663-.32229529 1.8128508-.48052712 2.8990776-.48052712zm-9.3271425 17.8251069v1.6215846c0 .2511493-.033969.4754731-.1015165.6737488-.0683285.197887-.1671118.3658382-.2994738.5046312-.1311905.1387931-.2916647.2441514-.481813.3172412-.1905387.0719236-.4076278.1084685-.6516579.1084685h-2.5445506v-1.6211958c0-.2453177.0351403-.4673088.1038592-.6651957.0694997-.1986646.1706258-.366227.3037686-.5046313.1327524-.1384042.293617-.2453176.4825939-.3207402.1885865-.0754225.403333-.1139113.6446299-.1139113zm-.7488796.7577244h-1.7792722c-.154227 0-.2830749.0143847-.3861532.0423766-.1030783.0283806-.1850724.0765888-.2459823.1434583-.0613004.0668695-.1046401.1555104-.1304097.2651452-.02616.1096349-.0386544.2476503-.0386544.4128801v.8385898h1.7792722c.1511035 0 .2783896-.0132184.3802965-.0384888.1011261-.0264368.1835107-.0715348.2455919-.1368491.0628622-.066092.1077637-.1535666.1343142-.2635902.0273314-.109246.040997-.2484278.040997-.4167678zm-3.7791476-.7577244v1.6215846c0 .2511493-.0335785.4754731-.101907.6737488-.0671571.197887-.1671118.3658382-.2986928.5046312-.1319715.1387931-.2932266.2441514-.4825939.3172412-.1893674.0719236-.406847.1084685-.6512675.1084685h-2.54416018v-1.6211958c0-.2453177.03435944-.4673088.10385921-.6651957.06910932-.1986646.16984494-.366227.30298776-.5046313.13275237-.1384042.29361701-.2453176.48220347-.3207402.18858645-.0754225.40372339-.1139113.64619169-.1139113zm-.7488796.7577244h-1.77849128c-.15500791 0-.2838558.0143847-.38732456.0423766-.10307832.0283806-.18507243.0765888-.24637279.1434583-.06051946.0668695-.1038592.1555104-.13001923.2651452-.02576958.1096349-.03904482.2476503-.03904482.4128801v.8385898h1.77927218c.1518844 0 .2791705-.0132184.3802965-.0384888.1022975-.0264368.1839011-.0715348.2467633-.1368491.0624717-.066092.1069828-.1535666.1343141-.2635902.026941-.109246.0406066-.2484278.0406066-.4167678zm-6.74655354.4914128h1.74217965c.15149388 0 .27058056-.0423766.35608871-.1259634.08550814-.0843644.13978044-.2060513.16476912-.3654494h-2.60897454v2.4679499h-.74927v-3.2256743h4.07862137v.6162099c0 .8160408-.37717291 1.2646883-1.13073784 1.3478864l1.16783042 1.261578h-.90388747l-1.18461969-1.249526h-.93199973zm12.87776084 1.9764983v-3.2256744h4.0786214v.6165987c0 .9066256-.4665855 1.3599384-1.400147 1.3599384h-1.5832673v-.7270111h1.7421796c.1518844 0 .2705806-.0423766.3564792-.1263522.0851177-.0843644.1397804-.2056625.1643787-.3654494h-2.609365v2.46795zm8.2043699-2.4679889h-1.4126414v2.46795h-.7449751v-2.46795h-.5173438c-.3256337 0-.5017259.1632859-.5290572.4918017h-.703978c.0648143-.8319807.515782-1.2495261 1.351341-1.2495261h2.5566545zm.3065408 1.6642334v-.8172071-.0377113l1.4989305.4626434c-.6579052.0866971-1.2607571.3005239-1.4989305.392275zm3.8798833.0987491c-.0558341.1038032-.1233816.1967206-.2018617.2795299-.1319715.1384043-.2928361.2441514-.481813.3168525-.1905387.0723123-.4080183.1084685-.6520484.1084685h-2.5441602v-.6574202c.3002547-.0905848 1.2486532-.3561188 2.0623472-.3456219.7356043.0093306 1.4122509.1815584 1.8175361.2981912zm.1987381-.9299522v.0307133c0 .2515381-.033969.4754731-.1015165.6741376-.0105421.0291582-.0206938.0579276-.0320168.0863083-.2815131-.104192-.7766013-.265534-1.3146389-.3440668zm0-1.5904825v1.575709l-1.6094273.276031 1.2224932-1.0784646-1.4360683.9769941.7465369-1.5348876-.8675758 1.3428322-.1042497-1.5053406-.0753565 1.5547152-.8995925-1.3922068.7297476 1.5010641-1.3868719-.9431706 1.2064848 1.0644687-1.603961-.2748647c.0035141-.2293778.037483-.4369842.1034688-.6235966.0687189-.1986646.1698449-.3666158.3029877-.5050201.1327524-.1384042.2936171-.2449288.4818131-.3207401.1897578-.0754226.4041138-.1135226.6458012-.1135226z" fill="#f00" fill-rule="evenodd"/><path d="m0 0h34v34h-34z"/></g></svg>