<svg height="140" viewBox="0 0 140 140" width="140" xmlns="http://www.w3.org/2000/svg" xmlns:xlink="http://www.w3.org/1999/xlink"><linearGradient id="a" x1="52.060161%" x2="22.039975%" y1="51.871997%" y2="119.408863%"><stop offset="0" stop-color="#454545"/><stop offset="1" stop-color="#212121"/></linearGradient><g fill="none" fill-rule="evenodd"><circle cx="70" cy="70" fill="#fff" r="70"/><path d="m37.3412109 81.9400391c-2.0054687-.0783204-5.0013672-2.2648438-6.2990234-3.7361328-3.3207031-3.7652344-6.0257813-7.9373047-7.9388672-12.5863282-2.1777344-5.2917969-3.4767578-10.7798828-3.4109375-16.5412109.0472656-4.1441406.85625-8.1189453 2.9308594-11.7363281 2.565039-4.472461 6.3519531-7.4138672 11.4130859-8.6029297 2.0138672-.4730469 4.0667969-.6628906 6.0794922-.0673828 2.0123047.5953125 3.9951172 1.2980468 5.9695313 2.0123047 1.7107421.6189453 3.3896484 1.0667968 5.1857421.2884765 1.1800782-.5115234 2.4074219-.9142578 3.6160157-1.3589844 1.9794922-.7285156 3.9802734-1.4039062 6.1113281-1.4673828 4.1216797-.1230468 7.9238281.8878907 11.2779297 3.3552735 1.3832031 1.0175781 2.5458984 2.2539062 3.5105469 3.7023437-.1326172.1-.2341797.1828125-.3417969.2568359-1.4445313.9931641-2.7238281 2.1654297-3.8304688 3.5259766-2.9375 3.6111328-3.9570312 7.7332031-3.2636718 12.3042969.483789 3.1894531 1.8582031 5.9427734 4.1003906 8.2634766 1.3703125 1.4183593 3.6710937 2.9019531 5.4417969 3.7617187-.3085938.7316406-.9136719 1.9123047-1.2076172 2.6507813-1.2542969 3.1519531-2.9423828 6.0615234-4.928711 8.805664-1.4125 1.9513672-2.8339843 3.8863281-4.7638672 5.3847656-1.7658203 1.3710938-3.7203125 2.0564454-5.9724609 1.9-1.715625-.1191406-3.3037109-.6550781-4.8408203-1.3666015-3.3587891-1.5550781-6.80625-1.8654297-10.3490234-.7564453-.8835938.2765625-1.7171875.7105468-2.5982422.996875-1.3988282.4544922-4.4212891 1.0683593-5.891211 1.0109375zm25.4597657-71.0244141c-.0085938 1.1302734.1203125 2.2818359-.050586 3.3869141-.633789 4.0960937-2.5566406 7.5125-5.7939453 10.1154297-2.3996094 1.9292968-5.1154297 3.080664-8.3257812 2.8810546-.1824219-1.2371093-.1417969-2.4646484.1248047-3.6664062.9535156-4.2978516 3.2396484-7.7193359 6.9107421-10.1613281 1.8947266-1.2603516 3.9738282-2.1207032 6.2472657-2.4527344.108789-.0160156.6978515-.1029297.8875-.1029297z" fill="url(#a)" transform="translate(20 20)"/></g></svg>