<svg height="48" viewBox="0 0 48 48" width="48" xmlns="http://www.w3.org/2000/svg"><g fill="none" fill-rule="evenodd" transform="translate(6.857143 6.857143)"><path d="m4.62459133 8.43359375h7.57465157c.3163364 0 .5727778.25644138.5727778.57277786 0 .31633647-.2564414.57277786-.5727778.57277786h-7.57465157c-.31633648 0-.57277786-.25644139-.57277786-.57277786 0-.31633648.25644138-.57277786.57277786-.57277786zm2.55440414 2.29111145h7.92698313c.3163365 0 .5727779.2564414.5727779.5727778 0 .3163365-.2564414.5727779-.5727779.5727779h-7.92698313c-.31633647 0-.57277785-.2564414-.57277785-.5727779 0-.3163364.25644138-.5727778.57277785-.5727778zm-1.49740932 4.6703425h9.68864115c.3163365 0 .5727779.2564414.5727779.5727779 0 .3163364-.2564414.5727778-.5727779.5727778h-9.68864115c-.31633648 0-.57277786-.2564414-.57277786-.5727778 0-.3163365.25644138-.5727779.57277786-.5727779zm-5.10880829-2.2911114h12.68345984c.3163365 0 .5727778.2564414.5727778.5727778 0 .3163365-.2564413.5727779-.5727778.5727779h-12.68345984c-.31633648 0-.57277786-.2564414-.57277786-.5727779 0-.3163364.25644138-.5727778.57277786-.5727778zm19.29015544 3.4366671c-.3163365 0-.5727779-.2564414-.5727779-.5727778 0-.3163365.2564414-.5727779.5727779-.5727779h8.5435635c.3163364 0 .5727778.2564414.5727778.5727779 0 .3163364-.2564414.5727778-.5727778.5727778zm2.3782383-2.2911114c-.3163364 0-.5727778-.2564414-.5727778-.5727779 0-.3163364.2564414-.5727778.5727778-.5727778h11.1860505c.3163365 0 .5727779.2564414.5727779.5727778 0 .3163365-.2564414.5727779-.5727779.5727779zm-.7927461-4.67034253c-.3163364 0-.5727778-.25644139-.5727778-.57277786 0-.31633648.2564414-.57277786.5727778-.57277786h5.9891593c.3163365 0 .5727779.25644138.5727779.57277786 0 .31633647-.2564414.57277786-.5727779.57277786zm-2.3782383 2.29111143c-.3163365 0-.5727779-.2564414-.5727779-.5727779 0-.3163364.2564414-.5727778.5727779-.5727778h10.5694702c.3163365 0 .5727778.2564414.5727778.5727778 0 .3163365-.2564413.5727779-.5727778.5727779zm-12.73743403 5.9089623h3.51514945v4.9058347c0 1.1795796.90327688 2.1626824 2.07863938 2.2623366l1.8580446.157536c.1247349.0105758.2205947.1149071.2205947.2400895 0 .1222683-.0991179.2213862-.2213862.2213862h-11.23305345c-.12226822 0-.2213862-.0991179-.2213862-.2213862 0-.1259625.09486349-.2317102.22008669-.2453382l1.78161217-.193893c1.13891087-.1239478 2.00169886-1.0857274 2.00169886-2.2313631zm21.51065943 0v4.8952025c0 1.1456357.862788 2.1074153 2.0016989 2.2313631l1.7816122.193893c.1252232.013628.2200867.1193757.2200867.2453382 0 .1222683-.099118.2213862-.2213863.2213862h-11.2330534c-.1222683 0-.2213862-.0991179-.2213862-.2213862 0-.1251824.0958598-.2295137.2205947-.2400895l1.8580446-.157536c1.1753625-.0996542 2.0786394-1.082757 2.0786394-2.2623366v-4.9058347zm-14.5755363 0h3.7321237l1.1844491 2.5712829 1.1057063-2.5712829h1.1473135c-.7139051 1.9782332-2.8963144 3.0031736-4.8745475 2.2892685-.9995451-.360716-1.8029016-1.1226778-2.2159423-2.1017609z" fill="#333" fill-rule="evenodd"/><path d="m0 0h34v34h-34z"/></g></svg>