<svg height="100" viewBox="0 0 100 100" width="100" xmlns="http://www.w3.org/2000/svg" xmlns:xlink="http://www.w3.org/1999/xlink"><linearGradient id="a" x1="53.079634%" x2="8.203927%" y1="51.871997%" y2="119.408863%"><stop offset="0" stop-color="#454545"/><stop offset="1" stop-color="#212121"/></linearGradient><g fill="none" fill-rule="evenodd"><circle cx="50" cy="50" fill="#fff" r="50"/><path d="m.01389273 23.5436752c0-12.9970534 10.53885817-23.53591162 23.53591157-23.53591162s23.5359116 10.53885822 23.5359116 23.53591162-10.5388582 23.5359116-23.5359116 23.5359116-23.53591157-10.5388582-23.53591157-23.5359116zm29.21068137-12.0294659c-1.3307824 0-2.6008577.3400748-3.6926818 1.0058212-2.1116264 1.1910008-3.3942427 3.3162661-3.3942427 5.636536v10.9311234c0 1.1829023-.678078 2.2757271-1.8300804 2.9375157-.669522.3719259-1.4109964.56672-2.1710245.56672-2.2105678 0-4.001105-1.5856876-4.001105-3.5042357 0-.5949532.1512818-1.1456191.4577121-1.6406218.4664014-.7854306 1.3039163-1.3974607 2.3638225-1.7178975.0893012-.0346572.1377148-.0411124.2119829-.0411124.8766564 0 1.5690608-.6924043 1.5690608-1.5690607s-.6924044-1.5690608-1.5690608-1.5690608c-.340545 0-.6766401.0560158-1.1683341.1925975-1.7377213.5158436-3.1778131 1.601233-4.0758022 3.0706697-.6077443 1.0220779-.9275028 2.1412324-.9275028 3.274486 0 3.6751727 3.2025421 6.6423573 7.1392266 6.6423573 1.3134448 0 2.5852122-.3317654 3.7124341-.9758922 2.1180251-1.1947788 3.4006414-3.3200442 3.4006414-5.6403141v-10.9572744c0-1.1829023.678078-2.275727 1.8300804-2.9375156.669522-.371926 1.4109964-.5667201 2.1710245-.5667201 2.1882713 0 3.974954 1.5890071 3.974954 3.5042357 0 .5949533-.1512818 1.1456192-.4577121 1.6406218-.4674935.8116959-1.3019669 1.4215033-2.3584379 1.7163324l-.0268288.0090795c-.067857.0271429-.1162706.033598-.1905387.033598-.8766564 0-1.5690608.6924044-1.5690608 1.5690608s.6924044 1.5690608 1.5690608 1.5690608c.3508468 0 .7177271-.060035 1.1721319-.1936835 1.7339235-.5147576 3.1740153-1.600147 4.0720044-3.0695838.6077443-1.0220778.9275027-2.1412323.9275027-3.274486 0-3.6751726-3.202542-6.6423572-7.1392265-6.6423572z" fill="url(#a)" transform="translate(26.119047 26.119047)"/></g></svg>