<svg height="100" viewBox="0 0 100 100" width="100" xmlns="http://www.w3.org/2000/svg" xmlns:xlink="http://www.w3.org/1999/xlink"><linearGradient id="a" x1="53.079634%" x2="8.203927%" y1="51.544176%" y2="107.25409%"><stop offset="0" stop-color="#454545"/><stop offset="1" stop-color="#212121"/></linearGradient><g fill="none" fill-rule="evenodd"><circle cx="50" cy="50" fill="#fff" r="50"/><path d="m53.6390246 17.0104167c1.3693846 0 2.4837354 1.1140728 2.4834192 2.4832212v32.5715103c0 1.3692539-1.1139292 2.483116-2.4833138 2.483116h-36.363728c-1.3698062 0-2.4837353-1.1138621-2.4837353-2.483116v-32.5715103c0-1.3692538 1.1139291-2.4832212 2.4837353-2.4832212zm-7.4887235 4.1698183v1.0391621c0 .5063584.4105835.9168396.9169629.9168396h.9171737c.5063793 0 .9169629-.4104812.9169629-.9168396v-1.0391621c0-.5064638-.4102674-.9169449-.9169629-.9169449h-.9171737c-.5063794 0-.9169629.4105865-.9169629.9169449zm-4.264652 0v1.0391621c0 .5063584.4107943.9168396.9171736.9168396h.9169629c.5063794 0 .9171737-.4104812.9171737-.9168396v-1.0391621c0-.5064638-.4107943-.9169449-.9171737-.9169449h-.9169629c-.5063793 0-.9171736.4105865-.9171736.9169449zm11.2562701 30.3881426v-25.6778293h-35.3697279v25.6778293zm.0241334-29.3489805v-1.0391621c0-.5064638-.4104782-.9169449-.9169629-.9169449h-.9171737c-.5064847 0-.9170682.4105865-.9170682.9169449v1.0391621c0 .5063584.4102673.9168396.9170682.9168396h.9171737c.5063793 0 .9169629-.4104812.9169629-.9168396zm-29.5024722 17.4784263c-.4543187-.2119836-.747397-.6716677-.7472916-1.1711778v-.0924004c0-.5002475.293289-.9601423.7471862-1.1712831l6.6477438-3.0905142c.1683013-.0781768.3563098-.1193725.5437914-.1193725.2486054 0 .4894122.0698535.696074.2018691.3738038.2380074.5971166.6452224.5971166 1.0887865v.0336097c0 .5004583-.2934998.9601424-.7478185 1.1712831l-4.1580015 1.9316636 4.1580015 1.9314529c.4543187.2109299.7478185.6707194.7478185 1.1713884v.0339258c0 .4429319-.2233128.8499362-.5971166 1.0887865-.2087695.1327531-.448944.2027119-.6953363.2027119-.1891677 0-.3721177-.0403527-.5440021-.1198992zm8.5438473 6.295449c-.2422822-.3315668-.3124693-.7631199-.1877977-1.1551631l4.3797334-13.5672658c.1718845-.5363859.666566-.8972427 1.2308022-.8972427h.0331966c.4108997 0 .800933.1980762 1.043426.529959.2425984.3324097.3122584.7645949.1866384 1.1561113l-4.3793119 13.5662122c-.1718844.5363859-.666039.897348-1.2300644.897348h-.033302c-.4107943 0-.8008276-.1981814-1.0433206-.5299589zm6.558482-10.616037v-.0001054h.0003161v-.0335044c0-.443564.2233128-.8506737.5975382-1.0891025.2066618-.1318049.4477848-.2014477.6959686-.2014477.1874816 0 .3752793.0411957.5429483.1191618l6.6477438 3.0905142c.4543187.2111407.7476077.6710356.7476077 1.1712831v.0924004c0 .4997208-.293289.9594049-.7471861 1.1710724l-6.6477439 3.0907249c-.1730437.079968-.3558882.1203207-.5448452.1203207-.2467084 0-.4869883-.0701695-.6950201-.2027119-.3742254-.2389557-.5973274-.6459599-.5973274-1.0889972v-.0339258c0-.5004583.2934998-.9602478.7477131-1.1713885l4.1580015-1.9312421-4.1580015-1.9311368c-.4544241-.2121943-.7477131-.6719838-.7477131-1.1719152z" fill="url(#a)" transform="translate(14.285714 14.285714)"/></g></svg>