<svg height="48" viewBox="0 0 48 48" width="48" xmlns="http://www.w3.org/2000/svg"><g fill="none" fill-rule="evenodd" transform="translate(6.857143 6.857143)"><path d="m0 0h34v34h-34z"/><path d="m9.12070657 7.8359375c3.21936533 0 5.83299103 2.6195179 5.83299103 5.8460041 0 3.2263749-2.6136257 5.8458928-5.83299103 5.8458928-3.21925434 0-5.832991-2.6195179-5.832991-5.8458928 0-3.2264862 2.61373666-5.8460041 5.832991-5.8460041zm15.75852023 0c3.2193654 0 5.833102 2.6195179 5.833102 5.8460041 0 3.2263749-2.6137366 5.8458928-5.833102 5.8458928-3.2193653 0-5.8331019-2.6195179-5.8331019-5.8458928 0-3.2264862 2.6137366-5.8460041 5.8331019-5.8460041zm8.3903045 4.6402205c0 .5943996-.480774 1.0761257-1.0738617 1.0761257-.5929767 0-1.0737507-.4817261-1.0737507-1.0761257 0-.5942883.480774-1.0761256 1.0737507-1.0761256.5930877 0 1.0738617.4818373 1.0738617 1.0761256zm-30.3915612 0c0 .5943996-.48077395 1.0761257-1.07375068 1.0761257-.59297672 0-1.07375067-.4817261-1.07375067-1.0761257 0-.5942883.48077395-1.0761256 1.07375067-1.0761256.59297673 0 1.07375068.4818373 1.07375068 1.0761256zm14.9541118.5670488h-1.7506298c-.4300552 0-.7819791-.3525911-.7819791-.7837087 0-.4310064.3519239-.7837087.7819791-.7837087h1.7506298c.4300551 0 .781979.3527023.781979.7837087 0 .4311176-.3519239.7837087-.781979.7837087zm5.9120656 13.1815996c-.0228623-.0331458-.0671441-.0433787-.1022144-.0235802-.1703573.0942096-.3620232.1507132-.5596821.1582767-.3983144.0152381-.7995142-.169177-1.0485578-.482616-.1761284-.2217875-.2744584-.5001899-.277233-.7878241-.0012208-.3637138-.0433939-.7425545.0696967-1.0704531.1705793-.4946285.6706641-.8566739 1.1988274-.8617903h.0163143c.5218373.0051164 1.0246967.3571514 1.1988274.8617903.0452806.1315821.0683649.2709501.0696967.4095395.0007769.2266816.0156484.4592582.000111.682603v.9377587c-.0036624.2031013-.2303986.3691639-.4278356.2891914-.0563788-.0228016-.1038791-.063066-.1379506-.1128959zm-.7152789-2.4442234c-.3377181.0033368-.646581.2961987-.6500214.6515704-.0006659.2176722-.0006659.4352331 0 .6529052.0026635.2753992.1947734.5376736.4560249.6208717.2209652.070407.4777775.0116789.6465811-.1478213.1285171-.1213491.2042068-.2949752.2059825-.4730504.0005549-.2176721.0005549-.435233 0-.6529052-.0033294-.336463-.2906618-.6480111-.6500214-.6515704zm-18.39046901 2.4455248c-.024638-.0353704-.07202731-.0460482-.10931725-.0245813-.16602905.0933198-.35414351.1502683-.55346715.157943-.39087854.0149045-.78475359-.1619472-1.0341301-.4647083-.18500697-.2246795-.28899708-.5127586-.29166065-.8057318-.0012208-.3637137-.04339396-.7424432.0695857-1.070453.17046832-.4941836.67066412-.8566739 1.19882737-.8617904h.01642533c.64480532.00634 1.23733812.5459044 1.26730325 1.2221673.01087624.2451454.012319.4897345.0012208.732989v.9365352c-.00355142.2031014-.23017663.3692752-.42783554.2891914-.05571295-.0225792-.10299128-.0622874-.13695176-.1115611zm-.71627771-2.445447c-.33494362.0032256-.64647005.2911935-.64991049.6514593-.00066589.2175609-.00066589.435233 0 .6529052.00255259.2752879.19499534.5376735.45591398.6208716.22107611.070407.47788842.0116789.64669201-.1478213.12829517-.1211267.20420685-.294419.20587158-.4730503.00077687-.2176722.00077687-.4353443 0-.6529052-.0031075-.3385764-.295656-.6480112-.64991049-.6514593zm16.03314522-1.5684073c.0633707.0085646.073359.015127.0998837.0274732.1066537.0494962.1762394.1631707.1802348.2829627v3.5257992c-.0005549.0184638-.000333.0231354-.0027746.0414879-.0281894.2099974-.3084189.3459174-.4929819.2095525-.0780204-.0576158-.123412-.1532714-.1266305-.2510404v-3.5257992c.0021087-.064067.0075468-.0746336.0172022-.1023293.0386218-.1115611.1444986-.1962052.2628054-.2081066.0399535-.0040041.0494979-.0007785.0622609 0zm-2.5612533 4.0673992c0-.0212445-.0109872-.0409317-.0290773-.0520545-.0179791-.0110115-.0405084-.0119013-.0593754-.0021133-.0692527.035704-.1420569.0647344-.2177466.0863125-.5783271.1648391-1.2542074-.1310259-1.5130174-.7042923-.0732481-.1622808-.1113149-.3395774-.1129796-.5184312-.0011098-.3616004-.0426171-.7378829.0671441-1.063112.1679157-.4965194.6555705-.8637925 1.2013799-.8691314h.0163144c.6485787.0062287 1.2419993.5530229 1.2677472 1.2302869.0085456.2247907.0103213.4550316.0023306.681157.0016647.4600368.0024416.9199623-.0014428 1.380444-.0036624.3139951-.1386165.6214278-.4013108.8167432-.394319.2935293-.9329146.3234495-1.3691847.2735084 0 0-.1043231-.0186862-.166251-.0701846-.1270744-.1055548-.1464963-.3190003-.0351813-.4459108.067588-.0773031.1742417-.1146756.2773439-.1031079.0218635.0023358.0255259.0025582.0361802.0034481.2747913.0224679.5635665.0149044.8078378-.1104489.0898954-.0460482.1713562-.1189022.2044288-.2165599.0287444-.0840879.0238611-.1752945.024527-.2661673.000111-.0167953.000222-.0337019.000333-.050386zm-.0007769-1.6152452c-.000111-.0775255-.000222-.1549399-.0004439-.2323542-.0032185-.3412458-.2979866-.6525715-.6585671-.6514592-.3368303.0033368-.646581.295865-.6499105.6514592-.0007769.2176722-.0007769.4353443 0 .6531277.0031075.3327925.2904399.6358874.6246066.6506806.3472626.0154606.6804305-.2815167.683871-.6506806.0002219-.0918739.0004439-.1839702.0005549-.2758441l-.000333-.0783042-.0002219-.0526105c.000111-.0048941.0002219-.0095656.0004439-.0140147zm4.8346637-2.4485724c.1856728 0 .3361644.1509356.3361644.3369079 0 .1859724-.1504916.3370192-.3361644.3370192-.1855619 0-.3361644-.1510468-.3361644-.3370192 0-.1859723.1506025-.3369079.3361644-.3369079zm1.6207365 0c.1856728 0 .3361644.1509356.3361644.3369079 0 .1859724-.1504916.3370192-.3361644.3370192-.1855619 0-.3361645-.1510468-.3361645-.3370192 0-.1859723.1506026-.3369079.3361645-.3369079zm2.8532246.9494487c.3620233.0030031.714502.1203481 1.0214782.3157747.2056496.1309148.1923318.4475793-.0149826.5510209-.1204154.0600628-.2608076.0109003-.3751191-.0598404-.2087571-.1283565-.4593544-.1973175-.7007402-.1810783-.0931139.0062287-.1927757.0225792-.2578112.0882034-.0753567.0760796-.0844572.2619407.0073249.3632689.1402812.1543837.3778936.2023227.5769953.2568242.3715677.1025517.7628901.2544884.9163782.6047437.1175299.2678357.0611511.60441-.1014375.8319814-.2693533.3767274-.8282586.4840619-1.2927182.3954136-.2563683-.0489401-.5059668-.1504908-.7133921-.3086562 0 0-.0782423-.0690723-.1045451-.1437059-.055269-.1559409.037179-.349143.197548-.4010862.0956664-.0310325.2036519-.0102329.2861115.0500524.0088786.0065624.0128739.0092318.018645.013236.2778989.187752.6480238.263053.9601051.1309147.1005497-.0426001.1771273-.1227951.1881145-.2475923.0086566-.097324-.1011046-.1705117-.2080912-.2182283-.2570343-.1148979-.5432568-.1484886-.8004021-.2706164-.2909947-.1380333-.5495828-.3889624-.5996356-.7265377-.0462795-.3129941.0603742-.6448969.2994293-.8334274.1929977-.1524928.4459256-.2111097.6967449-.2106648zm3.42072 0c.3620232.0030031.7148349.1206818 1.0214781.3157747.2079803.1323607.1907781.4483579-.0148716.5510209-.1204154.0600628-.2609186.0109003-.37523-.0598404-.2086462-.1284677-.4593545-.1973175-.7006293-.1810783-.0930029.0062287-.1919988.0228016-.2579221.0882034-.0698077.0694059-.0821267.2198967-.0264137.3172207.1084294.1894204.3926542.2431432.6107338.3028724.3733434.1029966.7643329.2579365.9163782.6046324.1443876.3287884.0286334.7513415-.2357257.9778006-.308197.2642765-.7631121.3251179-1.1584299.2497057-.2563684-.0489401-.5058559-.1503795-.7133922-.3086562 0 0-.0782423-.0690723-.104545-.1437059-.0550471-.155496.0364021-.3489205.1975479-.4010862.0956665-.0310325.2036519-.0102329.2861116.0500524.0089895.0065624.0128739.0092318.0187559.013236.2777879.1878632.6479128.263053.9599942.1309147.0705845-.0299201.1382835-.0746336.1624776-.1411476.0264137-.0741887.0411743-.1600563-.0085456-.2137792-.1500477-.1623921-.4216206-.1973175-.6231639-.2533761-.0751348-.021022-.1494927-.0448247-.2222969-.0729653-.2976536-.1147867-.584764-.3125491-.6925275-.6324393-.1168641-.3462511-.0144277-.7636877.2634712-.9828058.1927757-.1521592.4459256-.2109985.6967449-.2105536zm-22.75141728 2.8831159c-.00011099.1721801-.13950436.3116593-.31119348.3116593h-.00011098c-.0825706 0-.16181173-.0329233-.22018825-.0915402-.05826555-.0585056-.09100523-.137922-.09100523-.2206753.00055491-.5615874.00177571-1.1231749.00355142-1.6846511.00466125-.4954071.33516559-.9702371.80894767-1.1376344.13129168-.0463819.27024112-.0691835.41030039-.0687386.34215745.0032256.66811153.1650615.8942928.4187714.21042184-.2393615.51007319-.4027547.8451278-.4175479.02064264-.0010011.04139628-.0013347.06214991-.0012235.61295353.0061175 1.17829573.525216 1.20271173 1.1674434.0005549.0129024.0007769.025916.0008879.0389296.0017757.5614762.0029965 1.1230637.0035514 1.6846511.000111.0827533-.0327397.1621697-.0911162.2206753-.0583765.0586169-.1376177.0915402-.2201883.0915402-.1716891 0-.3109715-.1394792-.3111935-.3116593-.0005549-.560364-.0016647-1.1208392-.0035514-1.6813143-.0027745-.3028724-.2635822-.5793839-.57743923-.5863912-.00510517-.0001112-.01021034-.0001112-.01531551-.0001112-.30386867.0031143-.5821005.2628305-.58520799.5866136l-.00055491.1707342c.00144276.5033042.0024416 1.0066085.00299651 1.5099127.00011098.0827533-.0326287.1621697-.09100522.2206753-.05837653.0586169-.13761766.0915402-.22018826.0915402h-.00599302c-.0825706 0-.16181173-.0329233-.22018825-.0915402-.05837653-.0585056-.09111621-.137922-.09100523-.2206753.00044393-.5033042.00144277-1.0066085.00288553-1.5099127l-.00044393-.1707342c-.00288553-.3032061-.26391515-.5794951-.57743925-.5865024-.00521615-.0001112-.01032132-.0001112-.01542649-.0001112-.30475652.0030031-.58221148.2668347-.58520799.5865024-.00166473.5604751-.00288553 1.1209503-.00344044 1.6813143z" fill="#f44b00" fill-rule="evenodd"/></g></svg>