<svg height="140" viewBox="0 0 140 140" width="140" xmlns="http://www.w3.org/2000/svg" xmlns:xlink="http://www.w3.org/1999/xlink"><linearGradient id="a" x1="52.209959%" x2="20.006953%" y1="51.871997%" y2="119.408863%"><stop offset="0" stop-color="#454545"/><stop offset="1" stop-color="#212121"/></linearGradient><g fill="none" fill-rule="evenodd"><circle cx="70" cy="70" fill="#fff" r="70"/><path d="m23.0675781 37.2476562c2.5462891 0 4.6105469 2.0640625 4.6105469 4.6105469v19.4542969c0 2.5462891-2.0642578 4.6105469-4.6105469 4.6105469-2.546289 0-4.6105469-2.0642578-4.6105469-4.6105469v-19.4542969c0-2.546289 2.0642579-4.6105469 4.6105469-4.6105469zm53.8648438 0c2.546289 0 4.6105469 2.0640625 4.6105469 4.6105469v19.4542969c0 2.5462891-2.0642579 4.6105469-4.6105469 4.6105469-2.5462891 0-4.6105469-2.0642578-4.6105469-4.6105469v-19.4542969c0-2.546289 2.0642578-4.6105469 4.6105469-4.6105469zm-15.5935547-16.6617187c5.5207031 3.5599609 9.24375 9.6677734 9.5046875 16.6617187h-41.4623047c.2611328-6.9939453 3.9841797-13.1017578 9.5048828-16.6617187l-3.43125-5.6886719 2.8888672-1.7423828 3.5210937 5.8378906c2.5279297-1.0966797 5.3164063-1.7054687 8.2476563-1.7054687s5.7197266.6089844 8.2476562 1.7054687l3.5210938-5.8376953 2.8888672 1.7423828zm-20.616211 8.7900391c1.1644532 0 2.1083985-.9441407 2.1083985-2.1083985 0-1.1644531-.9439453-2.1083984-2.1083985-2.1083984-1.1644531 0-2.1083984.9439453-2.1083984 2.1083984s.9439453 2.1083985 2.1083984 2.1083985zm18.5546875 0c1.1644532 0 2.1083985-.9441407 2.1083985-2.1083985 0-1.1644531-.9439453-2.1083984-2.1083985-2.1083984-1.1644531 0-2.1083984.9439453-2.1083984 2.1083984s.9439453 2.1083985 2.1083984 2.1083985zm-30.0248046 43.3503906v-32.3863281h41.4949218v32.3863281h-8.4339843v10.2894531c0 2.5462891-2.0642579 4.6105469-4.6105469 4.6105469-2.5462891 0-4.6105469-2.0642578-4.6105469-4.6105469v-10.2894531h-6.4097656v10.2894531c0 2.5462891-2.0642578 4.6105469-4.6105469 4.6105469s-4.6105469-2.0642578-4.6105469-4.6105469v-10.2894531z" fill="url(#a)" transform="translate(20 20)"/></g></svg>