<svg height="100" viewBox="0 0 100 100" width="100" xmlns="http://www.w3.org/2000/svg" xmlns:xlink="http://www.w3.org/1999/xlink"><linearGradient id="a" x1="53.079634%" x2="8.203927%" y1="51.480767%" y2="104.903031%"><stop offset="0" stop-color="#454545"/><stop offset="1" stop-color="#212121"/></linearGradient><g fill="none" fill-rule="evenodd"><circle cx="50" cy="50" fill="#fff" r="50"/><path d="m54.7555287 45.8346501.8183086.8147352c1.6420339 1.6348634 1.6420339 4.2947974 0 5.9296608-1.6420339 1.6348635-4.3136343 1.6348635-5.9556681 0l-.8179474-.814735-5.8903046 5.8645826-7.8537394-7.8190841 1.0165659-1.0121267h5.0990804v-8.4820901c3.0746155-.7291628 5.3681183-3.4872533 5.3681183-6.7688452 0-3.2812324-2.2935028-6.0393229-5.3681183-6.7688452v-2.735439l1.7380931-1.7308627 5.8903046 5.8645827.9490356-.9448914c.7951965-.791724 1.8529307-1.2278553 2.977473-1.2278553 1.1249033 0 2.1826375.4361313 2.9781952 1.2278553 1.6416727 1.6348635 1.6416727 4.2947975-.0003612 5.9296609l-.9490357.9448914 5.8903046 5.8645827zm-16.3603922.19883h-8.3300628v-1.3364388c0-2.3118919-1.8890432-4.192686-4.211436-4.192686-2.3220317 0-4.2110748 1.8807941-4.2110748 4.192686v1.3364388h-8.3300629v-8.2936871h1.1570435c2.0374654 0 3.7412516-1.4482582 4.1283772-3.3646475.167923-.2340655.2679545-.5195464.2679545-.8283979s-.1000315-.5943324-.2679545-.8280384c-.3871256-1.9167488-2.0909118-3.3646475-4.1283772-3.3646475h-1.1570435v-8.293687h8.3300629v-1.3360793c0-2.3122513 1.8890431-4.1930454 4.2110748-4.1930454 2.3223928 0 4.211436 1.8807941 4.211436 4.1930454v1.3360793h8.3300628v8.293687h1.1566823c2.3223929 0 4.211436 1.8807941 4.211436 4.1926859 0 2.3122513-1.8890431 4.1930454-4.211436 4.1930454h-1.1566823z" fill="url(#a)" transform="translate(14.285714 14.285714)"/></g></svg>