<svg height="147" viewBox="0 0 150 147" width="150" xmlns="http://www.w3.org/2000/svg"><g fill="none" fill-rule="evenodd" transform="translate(1 1)"><g fill-rule="nonzero"><path d="m97.7 16.6c0 4.3 1.8 8.3 4.6 11.1 2.5 2.5 5.8 4.1 9.5 4.5v111.7h-94.3c-9.2 0-16.6-7.4-16.6-16.6v-109.9c0-.1 0-.3 0-.4.2-8.9 7.6-16.1 16.6-16.1h91.8v.1c-8 .7-11.6 7.4-11.6 15.6z"/><path d="m97.7 16.6c0 4.3 1.8 8.3 4.6 11.1 2.5 2.5 5.8 4.1 9.5 4.5v111.7h-94.3c-9.2 0-16.6-7.4-16.6-16.6v-109.9c0-.1 0-.3 0-.4.2-8.9 7.6-16.1 16.6-16.1h91.8v.1c-8 .7-11.6 7.4-11.6 15.6z"/><path d="m111.7 32.2v111.6h-94.2c-7.2 0-13.3-4.6-15.6-11-.6-1.6-.9-3.3-1-5.1 0-.2 0-.4 0-.5v-110.2c.1 4.2 1.8 7.9 4.6 10.7 2.9 2.8 6.8 4.6 11.1 4.6h94.3c.2 0 .6-.1.8-.1z"/><path d="m111.7 41.5v102.3h-94.2c-7.2 0-13.3-4.6-15.6-11 0-.2 0-.4 0-.5v-105.3c.1 4 1.8 7.6 4.6 10.2 2.9 2.7 6.8 4.4 11.1 4.4h94.1z"/><path d="m112.7 56.6v74.8c-19.2-1.7-34.2-17.8-34.2-37.4-.1-19.6 15-35.7 34.2-37.4z"/></g><path d="m111.7 32.2c.2 0 .1 0 0 0z" stroke-linecap="round" stroke-linejoin="round" stroke-width="3.2"/><path d="m19.4 32.3v36.5l13.4-10.1 13.4 10.1v-36.5" fill-rule="nonzero" stroke-linecap="round" stroke-linejoin="round" stroke-width="3.2"/><path d="m97.7 16.6c0 4.3 1.8 8.3 4.6 11.1 2.5 2.5 5.8 4.1 9.5 4.5v111.7h-94.3c-9.2 0-16.6-7.4-16.6-16.6v-109.9c0-.1 0-.3 0-.4.2-8.9 7.6-16.1 16.6-16.1h91.8v.1c-8 .7-11.6 7.4-11.6 15.6z" stroke-linecap="round" stroke-linejoin="round" stroke-width="3.2"/><path d="m111.7 32.2c.5.1-1.4.1-.8.1h-94.3c-4.3 0-8.3-1.8-11.1-4.6-2.7-2.7-4.5-6.5-4.6-10.7 0-.1 0-.3 0-.4 0-8.7 7-15.7 15.7-15.7h94.3c-.6 0-1.1 0-1.6.1-7.9.8-11.6 7.5-11.6 15.6 0 4.3 1.8 8.3 4.6 11.1 2.4 2.4 5.7 4.1 9.4 4.5z" stroke-linecap="round" stroke-linejoin="round" stroke-width="3.2"/><g transform="translate(81 54)"><path d="m60.5 15.5c3.4 5.2 5.4 11.4 5.4 18 0 18.2-14.7 32.9-32.9 32.9s-32.9-14.7-32.9-32.9 14.7-32.9 32.9-32.9c11.5.1 21.6 6 27.5 14.9" fill-rule="nonzero"/><g stroke-linecap="round" stroke-linejoin="round"><path d="m64.3 23.2c.1.3.2.6.2.9.9 3 1.4 6.2 1.4 9.5 0 7.3-2.4 14.1-6.4 19.6" stroke-width="3.5041"/><path d="m37.9 66.1c-1.6.2-3.2.4-4.9.4-18.2 0-32.9-14.7-32.9-32.9s14.7-32.9 32.9-32.9c10.2 0 19.3 4.6 25.3 11.9" stroke-width="3.5041"/><path d="m51.8 60.6c-.5.4-1.1.7-1.7 1.1" stroke-width="3.5041"/><path d="m38 25.8c0-2.2-2-4.2-5-4.2-5.3 0-6.7 4.5-6.7 4.5l-7-3.1s2.8-9.5 14-9.5c8.1 0 13.4 5.3 13.4 11.2 0 10.3-10.1 10.3-10.1 17.6h-7.5s-.6-1.4-.6-2.5c0-8.2 9.5-8.2 9.5-14zm-5.5 19.8c2.5 0 4.5 2 4.5 4.2s-2 4.2-4.5 4.2-4.5-2-4.5-4.2c0-2.3 1.9-4.2 4.5-4.2z" fill-rule="nonzero" stroke-width="3.2"/></g></g></g></svg>